<svg preserveAspectRatio="none" width="100%" height="100%" overflow="visible" style="display: block;" viewBox="0 0 194 98.2184" fill="none" xmlns="http://www.w3.org/2000/svg">
<g id="_1608603074288">
<path id="Vector" fill-rule="evenodd" clip-rule="evenodd" d="M3.67308 93.1382L186.312 58.3138L166.45 79.8185L2.99821 98.1396L3.67308 93.1382Z" fill="var(--fill-0, #1A2B01)"/>
<path id="Vector_2" fill-rule="evenodd" clip-rule="evenodd" d="M35.4731 20.6867L35.475 20.6699L85.5168 12.2222L84.7608 18.7L193.999 2.94959e-06L186.312 58.3138L174.985 69.2153L122.749 78.0325L122.255 78.0738L107.422 80.5839C101.669 88.4725 91.5833 93.1663 82.3379 94.8434C73.2659 96.4906 62.3702 95.6876 54.8637 89.7032L2.99821 98.2184L12.7894 24.525L35.4731 20.6867Z" fill="var(--fill-0, #1A2B01)"/>
<path id="Vector_3" fill-rule="evenodd" clip-rule="evenodd" d="M39.9833 25.0147L39.9852 24.9997L79.8413 18.2723L79.0834 24.7671L188.219 6.08577L181.636 56.0195L172.719 64.5103L122.146 73.048L121.652 73.0893L104.524 75.9877C95.9386 90.4029 67.6899 95.8865 56.3775 84.3716L8.7844 92.1851L17.1963 28.8736L39.987 25.0184L39.9833 25.0147Z" fill="var(--fill-0, #EDFBD9)"/>
<path id="Vector_4" fill-rule="evenodd" clip-rule="evenodd" d="M113.622 64.6228C110.328 65.1781 107.926 64.5384 106.416 62.7018C104.905 60.8652 104.452 57.736 105.059 53.3124L107.349 36.5972L116.913 34.9819L114.588 51.9579C114.411 53.2467 114.654 54.226 115.314 54.8976C115.976 55.5692 116.954 55.7943 118.25 55.5748C119.546 55.3553 120.652 54.7775 121.567 53.8414C121.65 53.757 121.729 53.6688 121.807 53.5806C122.579 52.6933 123.05 51.6334 123.219 50.3989L125.531 33.528L135.096 31.9128L132.24 52.7627L131.146 60.7451L123.579 62.0227L124.508 55.2428C124.246 55.9894 123.953 56.6892 123.63 57.3439C122.613 59.4038 121.303 61.0284 119.703 62.2159C118.102 63.4053 116.216 64.182 114.044 64.5497L113.623 64.621L113.622 64.6228ZM169.994 23.7765C168.277 24.0654 167.067 23.8365 166.367 23.088C165.664 22.3395 165.41 21.2683 165.6 19.8744C165.79 18.4824 166.357 17.2724 167.303 16.2443C168.247 15.2182 169.579 14.5597 171.295 14.2689C173.047 13.9725 174.266 14.2014 174.95 14.9537C175.634 15.7059 175.881 16.7771 175.689 18.171C175.5 19.563 174.939 20.773 174.011 21.7955C173.084 22.8198 171.743 23.4801 169.992 23.7746L169.994 23.7765ZM21.0962 79.3232L26.32 41.1934L35.0435 39.7207L49.8648 37.2181L48.7769 45.1574L35.0066 47.4817L33.9832 54.9501L47.1746 52.7233L46.0867 60.6626L32.8953 62.8894L30.8707 77.6723L21.0962 79.3232ZM77.7982 81.0285C76.3618 81.2705 74.8885 81.4694 73.3783 81.6213C71.8682 81.7733 70.5129 81.8671 69.3107 81.9009L70.3986 73.9616C71.6063 73.8941 72.9542 73.7946 74.4441 73.6614C75.934 73.5282 77.3095 73.3556 78.5708 73.1437C80.7429 72.776 82.5518 72.2507 83.9974 71.5641C85.443 70.8774 86.5641 70.0089 87.3589 68.9564C88.1536 67.904 88.6514 66.647 88.8506 65.1838L89.1972 62.653C88.0854 64.5422 86.6655 66.0992 84.9378 67.3243C83.175 68.5737 81.1375 69.3954 78.8252 69.7856C76.8633 70.1177 75.1411 70.067 73.6605 69.6374C72.1798 69.2078 70.9739 68.4499 70.0446 67.3656C69.1152 66.2812 68.4717 64.9174 68.114 63.2777C67.7563 61.6381 67.7194 59.7902 68.0015 57.736L68.173 56.4828C68.4551 54.4286 69.0304 52.4682 69.9026 50.6034C70.7747 48.7387 71.8958 47.0521 73.2659 45.5457C74.6359 44.0393 76.1848 42.7917 77.9125 41.8012C79.6403 40.8125 81.5026 40.1484 83.4996 39.8126C85.8118 39.4224 87.7387 39.5988 89.2802 40.3417C90.8217 41.0846 91.9317 42.3527 92.6103 44.1425C92.7338 44.4689 92.8408 44.8103 92.9311 45.1686L93.7904 38.8915L101.358 37.6139L100.543 43.5628L97.8728 63.0526C97.386 66.6039 96.3276 69.5905 94.6958 72.0087C93.0639 74.4268 90.8383 76.3685 88.019 77.8299C85.1996 79.2913 81.7939 80.3607 77.8 81.0341L77.7982 81.0285ZM83.105 61.4073C84.2611 61.2122 85.3398 60.7751 86.3392 60.096C86.4498 60.021 86.5586 59.9422 86.6674 59.8615C87.5266 59.218 88.2661 58.4132 88.8856 57.4452C89.5826 56.359 90.0251 55.119 90.2169 53.7251L90.3884 52.4719C90.5746 51.1137 90.4437 50.0144 89.9938 49.1702C89.5439 48.3278 88.8801 47.7425 88.0005 47.4142C87.121 47.0859 86.1382 47.0146 85.0521 47.1985C83.7909 47.4123 82.6384 47.8945 81.593 48.6505C80.5475 49.4047 79.6808 50.3689 78.9894 51.5396C78.2979 52.7102 77.8535 54.0271 77.6525 55.4904C77.4515 56.9537 77.5511 58.16 77.9512 59.113C78.3514 60.066 78.9949 60.7395 79.8818 61.1335C80.7687 61.5274 81.8437 61.6193 83.105 61.4055V61.4073ZM51.1574 74.2505L54.163 52.3125L50.4844 52.9334L51.4285 46.0391L55.107 45.4181L64.6714 43.8029L60.7218 72.6353L51.1574 74.2505ZM59.3112 42.4634C57.5945 42.7523 56.3849 42.5235 55.6842 41.7749C54.9817 41.0264 54.7272 39.9552 54.9171 38.5613C55.107 37.1693 55.6768 35.9593 56.6209 34.9313C57.565 33.9051 58.8963 33.2466 60.613 32.9558C62.3647 32.6594 63.5835 32.8883 64.2676 33.6406C64.9517 34.3928 65.1988 35.464 65.007 36.8579C64.8171 38.2499 64.2565 39.4599 63.329 40.4824C62.4016 41.5067 61.061 42.167 59.3093 42.4615L59.3112 42.4634ZM138.188 59.5595L142.14 30.7271L149.707 29.4496L148.311 39.6325C148.988 36.6497 150.129 34.1264 151.735 32.0666C153.749 29.4815 156.351 27.9206 159.539 27.3822L160.695 27.1871L159.579 35.3346L157.372 35.7079C155.235 36.0681 153.5 36.9236 152.169 38.2705C151.287 39.1635 150.631 40.2347 150.205 41.4842C149.987 42.1201 149.829 42.803 149.729 43.5309L147.754 57.948L138.19 59.5632L138.188 59.5595ZM161.165 34.2503L162.109 27.3559L165.788 26.735L175.352 25.1197L174.408 32.0141L171.402 53.9521L161.838 55.5673L164.844 33.6293L161.165 34.2503Z" fill="var(--fill-0, #1A2B01)"/>
<path id="Vector_5" fill-rule="evenodd" clip-rule="evenodd" d="M0 98.2184L2.88203 31.2655L12.7894 24.5232L2.9982 98.2184H0Z" fill="var(--fill-0, #1A2B01)"/>
</g>
</svg>
