<svg preserveAspectRatio="none" width="100%" height="100%" overflow="visible" style="display: block;" viewBox="0 0 389.996 420.008" fill="none" xmlns="http://www.w3.org/2000/svg">
<g id="Camada_x0020_1">
<path id="Vector" d="M336.79 181.282C328.933 184.357 324.255 184.875 321.569 184.655C325.046 180.96 332.312 173.068 335.861 167.954C339.476 166.123 360.96 154.724 372.143 136.608L375.839 137.052C367.917 155.564 354.175 171.123 336.79 181.278V181.282ZM278.971 193.362C281.808 192.685 284.656 191.682 287.305 190.222C293.993 189.916 309.148 189.088 316.789 187.465C317.71 187.999 319.035 188.472 320.909 188.652C313.016 191.441 304.621 193.207 295.859 193.782C290.133 194.157 284.489 194.006 278.971 193.366V193.362ZM221.246 164.055C220.215 160.234 219.319 154.928 218.716 150.34C222.791 150.662 231.658 150.988 238.692 148.668C238.692 148.668 236.528 121.571 237.184 113.113C242.454 110.719 261.35 102.089 272.993 96.322C279.049 101.294 301.153 111.657 308.333 113.549C308.402 119.662 308.622 140.462 308.659 153.578C305.696 156.168 296.87 162.844 278.841 168.892C265.267 166.049 238.089 145.156 237.832 144.96L238.7 148.672L236.1 148.994C237.144 149.777 261.481 168.203 276.168 172.33C277.7 176.2 280.83 184.035 282.704 187.999C276.486 190.532 269.387 190.776 264.794 190.585C247.967 185.903 232.93 176.604 221.254 164.059L221.246 164.055ZM200.565 114.919C201.624 120.445 205.569 137.986 214.42 148.011C214.661 150.128 215.117 153.798 215.794 157.652C205.659 144.601 198.873 128.753 196.824 111.334C198.156 112.884 199.468 114.067 200.565 114.919ZM310.799 9.04961C310.676 9.40034 310.554 9.75924 310.424 10.1059C290.41 6.90032 266.848 11.9248 265.776 12.1573L265.796 12.2429L260.258 11.4191C267.671 8.95173 275.512 7.38157 283.666 6.8473C293.006 6.23555 302.118 7.03491 310.803 9.04553L310.799 9.04961ZM381.577 84.0707C378.565 70.5224 373.422 58.8584 369.143 50.7384C375.443 60.8078 379.898 72.1905 381.996 84.4377C381.854 84.3113 381.715 84.189 381.577 84.0748V84.0707ZM370.419 98.5447C361.156 94.185 345.837 89.1441 339.92 87.2559C337.866 82.5168 327.23 58.1039 323.297 51.1911C327.662 44.8452 333.624 35.0735 336.595 30.1387C341.807 32.3614 358.637 40.9381 358.637 40.9381C358.776 41.1339 372.558 60.5713 377.946 86.1017C377.946 86.1017 372.648 95.8122 370.419 98.5406V98.5447ZM281.926 51.1258C273.099 42.182 260.397 33.6379 255.095 30.2243C257.499 26.1542 266.624 16.0562 266.624 16.0562C266.897 15.995 294.054 10.2038 313.981 14.8653C319.96 17.6304 329.524 22.6182 333.367 27.7651C329.284 34.5474 323.786 43.3974 320.057 48.8746C312.832 47.8265 289.506 48.2669 281.922 51.1218L281.926 51.1258ZM201.176 110.172C199.534 108.561 197.679 106.232 196.221 103.027C195.589 81.5136 202.341 61.3462 214.245 45.0777L218.039 50.4937C215.627 57.484 210.696 74.4132 211.674 93.3448C208.87 96.7502 203.609 103.655 201.176 110.176V110.172ZM271.628 92.5495C259.965 98.3489 240.375 107.281 235.351 109.568C230.786 106.714 220.37 99.9599 215.773 95.0251C214.265 74.5559 220.407 55.6446 222.383 50.2001C228.402 45.6527 242.417 35.6893 252.507 33.3117C257.446 36.4887 270.797 45.3999 279.513 54.3681C277.891 61.6847 272.683 85.3268 271.628 92.5536V92.5495ZM335.661 163.533C331.052 162.591 320.286 159.948 312.649 154.655C312.612 140.486 312.343 116.171 312.302 112.244C317.881 108.043 332.841 96.636 338.265 90.9141C346.261 93.4549 361.873 98.7527 369.897 102.692C372.497 112.334 371.747 123.806 370.932 130.564C362.338 147.897 342.129 159.997 335.661 163.529V163.533ZM283.23 0.22C232.857 3.51122 193.511 43.7073 189.818 92.7045L189.765 92.7086C189.774 92.8269 189.786 92.937 189.79 93.0471C189.464 97.5781 189.439 102.187 189.741 106.848C193.339 162.04 241.141 204.015 296.287 200.413C351.441 196.808 393.382 148.973 389.78 93.7771C386.182 38.5849 338.38 -3.38933 283.23 0.215922V0.22Z" fill="var(--fill-0, #94DD2D)"/>
<path id="Vector_2" d="M278.825 77.4026C278.825 77.4026 283.805 55.298 286.788 54.727C293.324 53.4668 316.5 52.8387 319.116 54.6699C321.736 56.497 330.999 75.9915 330.999 75.9915C330.999 75.9915 318.933 57.0925 317.498 56.9946C307.066 56.3176 289.009 57.019 287.154 60.2817C279.689 73.4303 281.054 74.5885 278.825 77.3985V77.4026Z" fill="var(--fill-0, #FEFEFE)"/>
<path id="Vector_3" d="M291.922 168.5C293.01 168.207 308.708 158.741 310.644 159.5C312.58 160.262 326.231 165.368 326.231 165.368C326.231 165.368 313.256 162.106 310.183 162.64C307.111 163.174 291.922 168.496 291.922 168.496V168.5Z" fill="var(--fill-0, #FEFEFE)"/>
<path id="Vector_4" d="M205.129 108.704C205.129 108.704 211.168 96.6483 212.562 97.5577C213.952 98.4672 231.699 110.298 232.139 111.938C232.579 113.573 234.254 123.961 234.254 123.961C234.254 123.961 230.562 113.439 229.503 112.281C227.526 110.127 213.116 100.943 212.138 101.338C211.168 101.734 205.129 108.708 205.129 108.708V108.704Z" fill="var(--fill-0, #FEFEFE)"/>
<path id="Vector_5" d="M221.344 27.0881L3.88773 219.525L190.686 85.1596L221.344 27.0881Z" fill="var(--fill-0, #94DD2D)"/>
<path id="Vector_6" d="M284.893 197.534L6.17079e-08 420.008L338.31 188.068L284.893 197.534Z" fill="var(--fill-0, #94DD2D)"/>
<path id="Vector_7" d="M191.917 110.735L64.2169 218.211L196.811 128.423L191.917 110.735Z" fill="var(--fill-0, #94DD2D)"/>
<path id="Vector_8" d="M252.495 193.427L82.1437 313.196L238.574 181.702L252.495 193.427Z" fill="var(--fill-0, #94DD2D)"/>
<path id="Vector_9" d="M218.732 171.315L4.87801 315.826L205.129 149.198L218.732 171.315Z" fill="var(--fill-0, #94DD2D)"/>
</g>
</svg>
