<svg preserveAspectRatio="none" width="100%" height="100%" overflow="visible" style="display: block;" viewBox="0 0 39.2915 18.2967" fill="none" xmlns="http://www.w3.org/2000/svg">
<path id="Vector" d="M39.235 5.68452C38.897 7.40848 37.0381 8.66992 35.3361 8.32717C36.6066 10.3615 36.1936 13.3016 34.4165 14.8979C32.6393 16.4953 29.7044 16.5526 27.8645 15.025C27.1326 16.9005 25.2238 18.2442 23.2337 18.2885C21.2375 18.3327 19.2788 17.0719 18.465 15.2276C16.907 17.4135 14.1032 18.6114 11.4748 18.2249C8.83968 17.8379 6.49376 15.8745 5.61725 13.3328C3.2332 13.9349 0.64232 12.0526 0.11664 9.61932C-0.0963222 8.64328 -0.00830237 7.63602 0.304416 6.69233C0.773493 5.29182 1.74973 4.03716 2.99556 3.25179C3.86534 2.70078 4.89819 2.33873 5.90584 2.49762C6.91965 2.65538 7.87073 3.42882 8.02709 4.44912C9.01568 2.89653 10.818 1.91481 12.6394 1.93354C14.4602 1.95907 16.2441 2.97882 17.2013 4.5507C17.4893 2.16167 19.6228 0.139808 21.9946 0.00758877C24.1724 -0.118956 26.3194 1.35074 27.0889 3.39759C28.991 2.93454 31.0813 3.28921 32.7267 4.36683C33.0709 2.644 34.9298 1.39501 36.6318 1.7372C36.9255 1.80075 37.2074 1.90234 37.4641 2.04193C38.7155 2.7263 39.5169 4.2596 39.235 5.68508V5.68452Z" fill="var(--fill-0, #345403)"/>
</svg>
