<svg preserveAspectRatio="none" width="100%" height="100%" overflow="visible" style="display: block;" viewBox="0 0 216.988 102.019" fill="none" xmlns="http://www.w3.org/2000/svg">
<path id="Vector" d="M216.977 75.7723C216.714 83.0512 211.771 89.0726 205.292 91.4746C198.822 93.8671 191.091 92.9444 184.161 89.9742C178.338 96.9711 169.501 101.194 159.997 101.515C157.668 101.596 155.299 101.444 152.941 101.066C145.678 99.9168 138.476 96.6647 132.457 91.7425C131.684 91.1058 130.901 90.4396 130 90.073C127.72 89.1503 125.498 90.4543 123.404 91.2806C117.12 93.7576 108.88 91.6568 103.565 86.2239C96.7829 93.8285 83.776 97.5647 73.862 89.9731C69.3405 95.7528 62.9791 100.052 55.6095 101.495C48.2398 102.948 39.8716 101.386 33.0994 96.7033C31.8463 95.8356 30.6626 94.8681 29.5563 93.8013C24.6436 89.114 21.2867 82.6783 20.8753 76.2433C20.8361 75.614 20.7969 74.5573 20.7481 73.5018C20.6893 71.8777 20.6304 70.2747 20.6304 70.2747C20.6304 70.2747 14.2595 67.8647 11.2937 66.7422C7.77033 65.4189 4.5798 63.4151 2.5051 60.0512C-1.20436 54.0457 -0.694934 45.927 3.37601 41.2868C8.78805 35.1088 18.5754 34.2899 27.1196 37.0841L27.0709 36.9593C25.1918 31.7874 26.6993 25.9402 30.6632 23.0399C34.4012 20.3087 40.0481 20.3756 44.4531 23.1131C45.9797 13.1949 57.0195 6.72297 66.9632 10.5534C73.0399 0.538156 87.2024 -2.95854 98.7898 2.72123C110.378 8.39135 118.061 22.5786 116.054 34.5941C122.533 31.3993 131.773 31.3913 139.582 35.0305C147.382 38.6691 155.428 50.0292 157.121 58.397C163.913 55.7685 172.848 58.2285 178.388 64.2652C182.421 58.8675 188.557 55.0036 195.555 54.6915C195.731 54.6847 195.897 54.6773 196.074 54.6796C200.027 54.6427 204.099 56.1476 207.583 58.6359C208.219 59.0854 208.836 59.5734 209.423 60.0858C214.023 64.0876 217.193 69.8542 216.978 75.7723H216.977Z" fill="var(--fill-0, #345403)"/>
</svg>
