<svg preserveAspectRatio="none" width="100%" height="100%" overflow="visible" style="display: block;" viewBox="0 0 386.241 185.18" fill="none" xmlns="http://www.w3.org/2000/svg">
<g id="Group">
<path id="Vector" d="M361.637 164.151C361.89 162.133 361.488 159.984 360.375 158.093C358.029 154.081 353.397 151.785 349.569 152.731C348.924 148.166 345.842 143.804 341.952 141.939C338.053 140.069 333.525 140.771 330.753 143.69C330.748 138.874 327.941 133.812 323.93 131.401C319.915 129.001 314.954 129.411 311.901 132.397C312.332 126.594 309.291 120.169 304.556 116.862C300.303 113.895 297.034 115.656 292.83 114.448C289.62 113.526 288.605 110.421 286.914 107.512C282.911 100.604 276.514 95.799 269.484 94.6232C264.022 93.7169 258.764 94.6975 253.815 96.6417C258.561 92.0912 261.356 84.9973 260.741 77.4897C259.788 65.8538 250.74 54.5606 240.38 52.0729C244.777 46.5179 247.052 38.0899 244.031 30.5324C240.995 22.9851 231.438 18.287 226.379 23.102C229.05 16.781 224.523 7.73842 218.174 4.85058C211.83 1.95026 204.82 4.36596 200.53 9.32448C196.232 14.266 194.251 21.3105 193.278 28.4112C187.828 21.0733 179.378 16.5353 171.412 16.6794C163.451 16.8133 156.19 21.6272 152.616 29.1234C148.775 21.1567 139.454 17.4824 132.541 19.7926C129.338 11.2488 120.207 5.23077 112.585 6.95303C104.558 8.7485 99.6535 18.804 102.254 28.1002C93.1761 22.3915 85.7258 24.8248 78.5938 27.9629C78.2984 28.0917 78.0132 28.2245 77.7369 28.3743C75.2155 20.4854 66.6797 14.8533 59.8839 16.794C57.1726 17.5777 54.5531 19.3669 51.6793 18.4635C48.839 17.5726 47.2233 14.6564 44.6381 13.4369C42.1105 12.2288 39.2972 12.3706 36.8291 12.8734C30.1807 14.2064 24.1668 17.8371 19.754 23.1888C17.7835 20.0615 14.811 17.6787 11.6222 16.6601C9.02351 15.8294 3.88775 15.8135 1.41739 17.9772C0.261228 18.9743 -0.319379 20.4508 0.179961 22.5374C0.691071 24.6801 2.434 26.3025 4.1349 27.568C12.2981 33.6773 22.3123 36.1401 31.1693 34.2124C35.0861 44.6946 47.0333 51.2268 55.7872 47.6733C57.1748 47.1121 58.7048 46.346 60.1557 47.1433C60.9908 47.5995 61.5977 48.4865 62.208 49.2968C65.565 53.6782 70.6122 56.4066 75.4403 56.4923C75.7356 56.8606 76.0231 57.2124 76.3201 57.5694C84.5909 67.4881 96.6698 73.6939 107.973 72.9C112.328 72.5998 116.84 71.4206 121.042 73.5707C124.308 75.2351 126.691 78.5815 129.242 81.4988C140.173 94.0012 156.706 99.8421 170.51 96.0878C177.376 107.687 191.802 113.22 202.04 108.178C202.998 113.575 206.754 118.63 211.412 120.754C216.057 122.885 221.401 122.005 224.713 118.56C224.113 119.193 233.115 128.822 234.01 129.668C237.531 133.031 241.394 135.945 245.448 138.335C253.539 143.119 262.459 145.859 271.149 146.008C275.833 146.09 280.073 145.704 284.585 144.799C287.032 149.781 291.482 153.677 296.284 155.036C301.094 156.411 306.146 155.215 309.576 151.898C312.173 155.815 316.113 158.655 320.221 159.587C324.325 160.531 328.528 159.543 331.6 156.916C331.167 157.277 335.593 161.504 336.017 161.833C337.862 163.221 339.918 164.2 342.016 164.71C344.103 165.216 346.233 165.256 348.197 164.718C349.733 164.309 349.58 164.508 350.851 165.743C351.799 166.676 352.932 167.318 354.032 167.948C355.122 168.572 356.266 169.221 357.429 169.234C358.795 169.264 360.007 168.396 360.683 167.153C361.19 166.233 361.501 165.207 361.637 164.151V164.151Z" fill="var(--fill-0, #E1FAC0)"/>
<path id="Vector_2" d="M362.432 160.55C362.683 158.533 362.283 156.383 361.17 154.492C358.825 150.481 354.192 148.184 350.363 149.129C349.719 144.565 346.636 140.203 342.748 138.338C338.847 136.468 334.318 137.169 331.549 140.089C331.542 135.273 328.736 130.211 324.725 127.8C320.711 125.401 315.748 125.808 312.696 128.796C313.127 122.993 310.088 116.568 305.35 113.26C301.097 110.294 297.83 112.056 293.625 110.847C290.416 109.924 289.4 106.82 287.709 103.911C283.707 97.0032 277.308 92.1979 270.278 91.0226C264.817 90.1164 259.558 91.097 254.609 93.0411C259.357 88.4906 262.151 81.3967 261.536 73.8886C260.582 62.2533 251.535 50.9595 241.173 48.4712C245.572 42.9174 247.847 34.4871 244.825 26.9313C241.79 19.3846 232.234 14.6871 227.172 19.5009C229.845 13.181 225.317 4.13789 218.969 1.24949C212.624 -1.6497 205.615 0.765417 201.324 5.72394C197.027 10.6654 195.046 17.71 194.073 24.809C188.623 17.4728 180.172 12.9347 172.206 13.0789C164.245 13.2128 156.986 18.0261 153.411 25.5217C149.57 17.5557 140.249 13.8807 133.336 16.1915C130.132 7.64713 121 1.62968 113.38 3.35194C105.352 5.14683 100.447 15.2029 103.049 24.4986C93.9702 18.7899 86.5199 21.2243 79.3879 24.3613C79.092 24.4906 78.8084 24.6229 78.531 24.7721C76.0096 16.8832 67.4738 11.2511 60.678 13.1918C57.9667 13.9755 55.3478 15.7653 52.4734 14.8613C49.6332 13.9698 48.0169 11.0542 45.4316 9.83469C42.9047 8.62655 40.0913 8.76843 37.6232 9.27121C30.9749 10.6031 24.9615 14.2342 20.5481 19.5866C18.5777 16.4593 15.6052 14.0765 12.4163 13.0584C9.81764 12.2277 4.68188 12.2118 2.21208 14.3756C1.05592 15.372 0.474767 16.8491 0.973547 18.9357C1.4841 21.0779 3.22813 22.7003 4.92847 23.9663C13.0928 30.0739 23.1059 32.539 31.9629 30.6108C35.8814 41.0936 47.8269 47.6251 56.5813 44.0711C57.969 43.5098 59.4984 42.7443 60.9504 43.5411C61.7849 43.9979 62.3913 44.8848 63.0027 45.6946C66.3597 50.0765 71.4069 52.8044 76.2349 52.8906C76.5303 53.2589 76.8178 53.6101 77.1148 53.9677C85.3856 63.887 97.4633 70.0916 108.768 69.2983C113.122 68.9981 117.635 67.8201 121.838 69.9696C125.103 71.6317 127.487 74.9798 130.037 77.8972C140.968 90.399 157.501 96.2405 171.306 92.4844C178.172 104.086 192.597 109.618 202.835 104.576C203.794 109.974 207.55 115.028 212.207 117.153C216.85 119.283 222.197 118.404 225.508 114.958C224.906 115.591 233.91 125.22 234.804 126.065C238.326 129.429 242.189 132.343 246.243 134.733C254.334 139.518 263.253 142.257 271.943 142.407C276.627 142.488 280.867 142.101 285.381 141.199C287.829 146.18 292.277 150.076 297.079 151.435C301.89 152.81 306.94 151.614 310.37 148.295C312.968 152.214 316.908 155.053 321.016 155.985C325.121 156.93 329.324 155.942 332.394 153.314C331.962 153.675 336.386 157.902 336.812 158.232C338.655 159.619 340.711 160.597 342.81 161.108C344.896 161.615 347.026 161.654 348.991 161.117C350.529 160.707 350.374 160.905 351.644 162.14C352.593 163.074 353.726 163.717 354.827 164.346C355.916 164.97 357.061 165.617 358.224 165.633C359.59 165.663 360.803 164.794 361.477 163.55C361.984 162.631 362.295 161.605 362.431 160.549L362.432 160.55Z" fill="var(--fill-0, #EDFBD9)"/>
<path id="Vector_3" d="M364.8 167.997C368.702 166.157 374.079 169.368 376.494 173.87C376.902 174.63 377.264 175.48 377.926 175.972C378.559 176.443 379.321 176.479 380.04 176.53C381.34 176.623 382.688 176.839 383.888 177.57C385.089 178.301 386.121 179.651 386.231 181.107C386.402 183.364 384.401 184.809 382.449 185.096C380.22 185.423 377.785 184.785 375.733 183.339C374.858 182.721 374.018 181.948 373.044 181.679C371.724 181.315 370.483 181.958 369.196 182.15C366.091 182.615 362.519 180.023 361.43 176.517C360.342 173.011 361.89 169.093 364.8 167.998L364.8 167.997Z" fill="var(--fill-0, #EDFBD9)"/>
<path id="Vector_4" d="M377.556 156.415C376.929 154.909 375.59 153.801 374.192 153.307C373.747 153.148 373.285 153.045 372.837 153.061C371.235 153.122 369.696 154.724 369.912 156.571C370.13 158.441 371.041 159.995 372.699 160.634C373.452 160.926 374.228 161.165 374.997 161.188C377.161 161.252 378.547 158.796 377.556 156.415L377.556 156.415Z" fill="var(--fill-0, #EDFBD9)"/>
<path id="Vector_5" d="M347.414 168.62C346.62 169.141 346.013 170.108 345.045 170.117C344.656 170.119 344.262 169.958 343.877 169.819C342.713 169.399 341.516 169.157 340.333 169.1C339.734 169.072 339.121 169.094 338.608 169.373C338.096 169.649 337.704 170.234 337.764 170.906C337.856 171.942 338.862 172.638 339.735 173.096C343.658 175.151 347.766 176.638 351.907 177.507C352.574 177.647 353.254 177.769 353.889 177.638C354.524 177.507 355.115 177.073 355.286 176.382C355.633 174.976 354.307 171.304 353.34 170.04C351.984 168.268 348.985 167.597 347.415 168.621L347.414 168.62Z" fill="var(--fill-0, #EDFBD9)"/>
<path id="Vector_6" d="M56.3813 29.1081C55.6533 28.8051 55.2996 27.4143 56.1039 27.0834C57.2992 26.5932 58.614 26.3395 59.9557 26.5353C60.5621 26.6244 61.1791 26.7674 61.7686 27.0125C61.8348 27.0398 61.8998 27.0682 61.9659 27.0988C62.3039 27.2549 62.7006 27.4291 63.0072 27.6663C63.288 27.8847 63.5491 28.1599 63.8024 28.417C64.0619 28.6814 64.086 29.1695 63.9353 29.4492C63.7582 29.7755 63.4298 29.8288 63.0935 29.7341C62.8564 29.6683 62.5258 29.6251 62.2467 29.536C61.9872 29.4532 61.7339 29.3522 61.4739 29.2796C61.4795 29.2813 61.4834 29.2818 61.484 29.2818C61.4896 29.2841 61.4548 29.2778 61.3797 29.2585C61.2486 29.2307 61.118 29.1973 60.9869 29.1587C60.9431 29.1468 60.9123 29.1382 60.8961 29.1342L60.752 29.1002C60.4886 29.0401 60.2252 28.9947 59.9613 28.964C58.7973 28.821 57.9802 28.8221 56.875 29.1365C56.699 29.1865 56.5315 29.1706 56.3818 29.1081H56.3813ZM61.4397 29.271C61.4307 29.2687 61.4201 29.2654 61.4117 29.2631C61.4217 29.2659 61.4324 29.2687 61.4397 29.271ZM55.7519 22.5761C55.0234 22.2731 54.6232 21.0808 55.4504 20.6393C58.0777 19.2326 61.1499 19.0578 64.1594 20.2307C64.2424 20.2625 64.3248 20.2954 64.4083 20.3306C67.2317 21.5064 69.9217 23.9227 71.2757 27.0142C71.6535 27.8779 70.9496 28.7059 70.272 28.4233C70.1252 28.3625 69.9795 28.2485 69.8461 28.0709C68.1452 25.8033 66.1546 23.833 63.6943 22.79C63.6763 22.7832 63.6601 22.7764 63.6416 22.7684C61.2822 21.7856 58.6174 21.7163 56.4306 22.5817C56.1918 22.6771 55.9587 22.6618 55.7519 22.5755V22.5761ZM234.865 97.7983C234.798 97.7699 234.729 97.7392 234.663 97.7046C233.666 97.203 233.784 95.6118 234.863 95.689C237.117 95.849 237.745 92.4227 238.104 90.5466C238.593 87.9885 238.491 85.2482 237.866 82.5726C237.656 81.6731 238.383 81.2561 238.979 81.5046C239.245 81.6147 239.484 81.8581 239.602 82.2497C240.622 85.6159 240.865 89.1427 240.307 92.4221C240.03 94.0518 239.487 95.7582 238.486 96.9249C237.638 97.914 236.159 98.3368 234.865 97.7977V97.7983ZM369.39 177.628C369.144 177.525 368.976 177.3 368.883 177.019C368.836 176.878 368.792 176.736 368.761 176.593C368.709 176.369 368.7 176.159 368.73 175.939L368.774 175.708C368.848 175.354 368.981 175.021 369.139 174.71C369.425 174.151 369.821 173.645 370.29 173.274C370.504 173.102 370.716 173.012 370.997 173.028C371.084 173.035 371.17 173.056 371.254 173.091C371.434 173.166 371.601 173.301 371.737 173.454C371.925 173.667 372.041 174.01 372.047 174.285C372.052 174.547 371.95 174.918 371.758 175.066C371.531 175.239 371.327 175.44 371.146 175.665C370.916 176.001 370.737 176.379 370.583 176.77C370.58 176.781 370.575 176.792 370.571 176.804C370.561 176.828 370.551 176.853 370.541 176.878L370.563 176.825C370.512 176.951 370.452 177.065 370.36 177.174L370.277 177.266L370.197 177.357C370.184 177.375 370.174 177.387 370.167 177.394C369.997 177.616 369.781 177.737 369.49 177.661C369.455 177.652 369.423 177.64 369.39 177.627L369.39 177.628ZM363.94 177.735C363.854 177.699 363.777 177.651 363.71 177.589C363.11 177.04 362.995 176.476 362.899 175.708C362.838 175.216 362.898 174.744 362.981 174.279C363.135 173.414 363.449 172.577 363.868 171.863C364.747 170.367 366.133 169.34 367.774 169.041C367.962 169.007 368.156 169.034 368.337 169.109C368.707 169.263 369.025 169.617 369.138 170.06C369.316 170.758 368.944 171.3 368.394 171.468C368.36 171.479 368.337 171.485 368.324 171.488C368.317 171.491 368.308 171.495 368.299 171.499L368.085 171.59C367.943 171.652 367.807 171.724 367.671 171.804L367.473 171.926C367.458 171.935 367.378 171.994 367.342 172.021C367.308 172.049 367.269 172.081 367.259 172.089L367.083 172.245C366.85 172.462 366.643 172.703 366.441 172.955C366.421 172.981 366.403 173.003 366.391 173.02L366.292 173.165C366.202 173.3 366.117 173.441 366.039 173.586C365.952 173.746 365.873 173.91 365.799 174.08L365.743 174.216L365.709 174.313C365.606 174.635 365.527 174.971 365.472 175.315L365.449 175.483L365.443 175.566C365.42 175.833 365.377 176.086 365.338 176.346C365.335 176.37 365.325 176.488 365.319 176.53C365.312 176.64 365.3 176.748 365.287 176.855C365.224 177.149 365.065 177.359 364.891 177.566C364.686 177.806 364.267 177.87 363.94 177.734V177.735ZM366.376 173.04C366.37 173.048 366.367 173.052 366.367 173.052C366.367 173.052 366.37 173.048 366.376 173.04ZM347.209 173.694C347.193 173.688 347.178 173.682 347.163 173.675C346.592 173.423 346.036 173.073 345.549 172.63C345.293 172.397 345.173 172.072 345.286 171.758C345.381 171.493 345.681 171.317 345.956 171.432C345.968 171.436 345.979 171.442 345.991 171.449C346.112 171.51 346.235 171.567 346.357 171.617C346.484 171.67 346.611 171.717 346.74 171.757C346.768 171.765 346.822 171.781 346.839 171.786L346.977 171.818C347.099 171.842 347.219 171.862 347.341 171.875C347.587 171.905 347.835 171.946 348.08 171.961L348.264 171.97C348.264 171.97 348.315 171.971 348.356 171.97C348.393 171.968 348.462 171.967 348.475 171.965L348.656 171.947C348.91 171.916 349.156 171.862 349.399 171.789L349.744 171.694L349.881 171.655C349.89 171.651 349.896 171.648 349.903 171.648C349.912 171.643 349.923 171.638 349.938 171.632C350.156 171.538 350.372 171.437 350.594 171.346C350.844 171.245 351.076 171.172 351.345 171.126C351.446 171.109 351.544 171.123 351.634 171.161C351.919 171.28 352.116 171.634 352.052 171.978C351.776 173.443 350.198 173.937 348.976 173.974C348.405 173.991 347.775 173.929 347.21 173.693L347.209 173.694ZM318.811 140.687C318.565 140.584 318.34 140.38 318.185 140.098C317.882 139.548 318.077 138.852 318.528 138.609C319.228 138.232 320.053 138.086 320.875 138.187C321.12 138.218 321.363 138.281 321.607 138.347C321.7 138.371 321.789 138.402 321.875 138.437C322.029 138.502 322.176 138.584 322.334 138.682C322.484 138.777 322.636 138.882 322.772 139C323.009 139.206 323.179 139.478 323.33 139.761C323.64 140.342 323.265 141.087 322.678 140.992C322.461 140.957 322.258 140.949 322.042 140.867C321.885 140.81 321.73 140.754 321.571 140.711L321.75 140.759C321.534 140.699 321.321 140.626 321.108 140.564C320.866 140.511 320.623 140.482 320.382 140.479C320.231 140.491 320.084 140.511 319.938 140.545L319.79 140.586C319.773 140.59 319.754 140.595 319.735 140.602L319.666 140.62C319.683 140.616 319.698 140.614 319.711 140.61L319.571 140.675C319.325 140.791 319.057 140.788 318.812 140.687H318.811ZM319.711 140.61C319.719 140.607 319.726 140.605 319.734 140.602L319.789 140.586C319.806 140.582 319.82 140.581 319.821 140.581C319.823 140.582 319.796 140.59 319.71 140.61L319.711 140.61ZM315.478 137.538C315.398 137.504 315.322 137.461 315.251 137.409C314.762 137.034 314.657 136.377 314.877 135.875C315.672 134.051 317.301 132.756 319.159 132.486C320.175 132.337 321.347 132.476 322.425 132.925C323.526 133.383 324.529 134.164 325.169 135.289C325.635 136.108 324.874 136.775 324.209 136.498C324.154 136.476 324.103 136.447 324.051 136.412C323.304 135.907 322.637 135.389 321.833 135.055C321.825 135.052 321.816 135.048 321.807 135.044C321.099 134.753 320.347 134.63 319.619 134.744C318.261 134.956 317.193 135.842 316.586 137.181C316.394 137.6 315.892 137.71 315.478 137.537L315.478 137.538ZM202.68 67.6306C202.387 67.5086 202.142 67.247 202.047 66.8776C201.568 65.0055 203.59 63.5204 204.805 62.8293C206.2 62.0354 207.876 61.6858 209.535 61.889C210.292 61.982 211.046 62.1881 211.778 62.4928C213.702 63.2946 215.466 64.774 216.731 66.6506C217.688 65.4402 218.873 64.4653 220.205 63.7787C223.01 62.3339 226.322 62.1937 229.419 63.4836C230.232 63.8218 231.031 64.2599 231.8 64.7978C235.401 67.3111 237.958 71.5422 238.477 76.0479C238.574 76.8786 237.814 77.1675 237.215 76.9183C236.909 76.7907 236.644 76.5217 236.559 76.112C235.647 71.7357 232.669 67.8644 228.88 66.2857C228.582 66.1614 228.279 66.0519 227.973 65.9566C223.965 64.7195 219.799 66.5428 217.867 70.1837C217.58 70.7256 216.901 70.8947 216.337 70.6597C216.028 70.5315 215.753 70.2801 215.596 69.9016C214.715 67.7685 213.074 65.985 211.143 65.1809C210.646 64.9743 210.13 64.8324 209.603 64.7649C208.365 64.6089 207.17 64.8653 206.127 65.4498C205.604 65.7426 205.138 66.1217 204.71 66.5553C204.202 67.0711 203.914 67.6278 203.152 67.7033C202.992 67.7192 202.83 67.693 202.68 67.6312L202.68 67.6306ZM251.106 129.899C247.003 128.191 243.162 125.066 240.325 121.204C239.699 120.353 240.403 119.396 241.128 119.698C241.262 119.754 241.397 119.854 241.523 120.003C244.174 123.14 247.393 125.355 250.879 126.806C251.255 126.963 251.632 127.111 252.014 127.249C253.95 127.955 255.93 128.345 257.898 128.436C259.834 128.522 261.753 128.077 263.693 128.422C263.758 128.433 263.82 128.453 263.88 128.478C264.52 128.744 264.928 129.723 264.366 130.222C262.687 131.715 260.184 131.765 257.972 131.591C255.805 131.418 253.601 130.884 251.485 130.052C251.358 130.002 251.232 129.952 251.105 129.899L251.106 129.899ZM262.44 103.02C262.279 102.953 262.127 102.844 261.995 102.694C261.685 102.34 261.62 101.742 261.828 101.379C262.002 101.074 262.203 100.802 262.448 100.567C262.7 100.325 262.973 100.119 263.276 99.9569C263.806 99.6743 264.383 99.4677 264.972 99.3355C265.162 99.2924 265.362 99.3264 265.553 99.4053C265.656 99.4484 265.757 99.5058 265.853 99.5722C266.12 99.7577 266.295 100.078 266.388 100.396C266.483 100.712 266.428 101.105 266.29 101.36C266.142 101.63 265.895 101.792 265.616 101.861C265.479 101.894 265.345 101.933 265.21 101.975C264.872 102.105 264.548 102.264 264.239 102.456C264.065 102.564 263.872 102.64 263.693 102.744C263.521 102.843 263.344 102.922 263.165 103.009C262.935 103.123 262.678 103.119 262.438 103.02H262.44ZM257.379 101.066C257.231 101.004 257.089 100.902 256.971 100.755C256.649 100.362 256.647 99.8916 256.808 99.4808C257.17 98.5564 257.952 97.9475 258.719 97.4714C259.437 97.0253 260.209 96.6821 261.012 96.4199C262.549 95.9165 264.293 95.8638 265.951 96.1191C266.025 96.1299 266.092 96.1498 266.156 96.1759C266.913 96.492 266.859 97.7937 265.99 97.7716C264.473 97.7307 263.134 98.0939 261.857 98.671C261.521 98.8225 261.193 98.9888 260.873 99.1721C260.707 99.2708 260.543 99.3741 260.38 99.4814L260.161 99.63C260.133 99.6493 260.113 99.6629 260.099 99.6726C260.086 99.6828 260.07 99.6959 260.049 99.7117C259.33 100.269 258.958 100.691 258.105 101.06C257.877 101.16 257.617 101.166 257.378 101.066H257.379ZM159.776 61.0491C158.995 60.724 158.313 59.5698 158.806 58.7169C159.697 57.1751 159.864 54.9881 158.718 53.2306C158.19 52.4191 157.418 51.808 156.583 51.4601C155.695 51.0901 154.734 51.0197 153.918 51.3222C153.54 51.4612 153.178 51.4425 152.865 51.312C152.081 50.9857 151.61 49.9551 151.982 48.9649C152.723 46.9964 152.822 44.5983 152.312 42.3772C151.52 38.9327 149.112 35.8809 146.127 34.6381C145.589 34.414 145.032 34.2488 144.462 34.1507C140.879 33.5321 137.615 35.9132 136.929 39.7334C136.777 40.5778 136.047 40.7798 135.412 40.5148C134.995 40.3418 134.62 39.9689 134.472 39.4457C133.786 37.001 131.887 35.2113 129.787 34.3363C128.969 33.9958 128.119 33.7943 127.299 33.7461C123.71 33.5361 120.862 36.0761 118.859 38.868C118.505 39.36 117.918 39.5058 117.417 39.2964C117.047 39.1427 116.725 38.7971 116.574 38.2569C115.398 34.0559 112.108 30.6239 108.447 29.0997C108.1 28.9555 107.75 28.8284 107.398 28.7195C107.378 28.7132 107.361 28.707 107.343 28.6996C106.772 28.4618 106.941 27.4841 107.515 27.534C108.587 27.6294 109.631 27.8972 110.631 28.3143C113.67 29.5798 116.293 32.2088 117.955 35.432C120.316 32.5964 123.705 30.6347 127.423 30.9371C128.407 31.0171 129.4 31.2674 130.358 31.6657C132.334 32.4891 134.16 33.9453 135.444 35.8434C136.224 34.3839 137.358 33.1939 138.705 32.3665C141.145 30.869 144.086 30.8713 146.812 32.0068C148.577 32.7416 150.25 33.9509 151.639 35.5336C154.64 38.9554 155.843 43.8583 155.153 48.1098C155.847 48.1699 156.544 48.343 157.215 48.6228C158.551 49.1789 159.785 50.1589 160.692 51.5265C162.631 54.445 162.743 58.2867 160.903 60.7512C160.595 61.1638 160.172 61.2126 159.775 61.0475L159.776 61.0491ZM185.029 97.9918C181.79 96.6423 178.806 93.8912 176.927 90.5829C176.344 89.5569 177.258 88.8487 178.048 89.1784C178.261 89.2664 178.466 89.431 178.629 89.6841C180.118 91.9988 182.195 93.7834 184.481 94.9065C184.69 95.0092 184.901 95.1034 185.11 95.1902C187.318 96.1101 189.579 96.2258 191.816 96.101C191.964 96.0925 192.108 96.1214 192.244 96.1776C193.047 96.5124 193.538 97.8244 192.609 98.2165C190.192 99.2402 187.534 99.0353 185.029 97.9923L185.029 97.9918ZM170.992 36.9381C170.837 36.8739 170.69 36.7673 170.558 36.6186C170.246 36.2645 170.184 35.6669 170.389 35.3026C170.783 34.6069 171.479 34.0292 172.147 33.6751C172.772 33.3426 173.438 33.0867 174.119 32.8881C175.443 32.5005 176.878 32.4068 178.299 32.5935C178.377 32.6043 178.454 32.6253 178.527 32.656C178.915 32.8171 179.216 33.2393 179.227 33.7041C179.241 34.2715 178.833 34.633 178.347 34.6103C177.979 34.5916 177.755 34.5916 177.491 34.6097C177.178 34.6313 176.866 34.6659 176.559 34.7181C176.266 34.7669 175.977 34.831 175.693 34.9059C175.541 34.9474 175.392 34.9922 175.244 35.0393C175.218 35.0478 175.197 35.0541 175.183 35.0586C175.17 35.0643 175.155 35.0694 175.138 35.0768L174.964 35.142C174.389 35.3684 173.836 35.6522 173.317 35.9921C173.057 36.1624 172.783 36.3065 172.521 36.471C172.257 36.6362 172.015 36.811 171.728 36.9324C171.487 37.0351 171.231 37.0379 170.992 36.9381ZM161.758 34.6319C161.431 34.4957 161.157 34.1546 161.163 33.7353C161.178 32.492 161.983 31.3428 162.617 30.4582C163.325 29.4679 164.149 28.6275 165.069 27.883C166.867 26.4309 168.875 25.4089 171.112 24.8607C174.447 24.0424 178.104 24.3891 181.517 25.8106C183.058 26.4524 184.55 27.3127 185.939 28.3846C186.871 29.1036 186.162 30.3532 185.245 29.9719C185.2 29.9531 185.156 29.9305 185.109 29.9055C184.303 29.4328 183.474 29.0196 182.63 28.6684C179.082 27.1907 175.283 26.8088 171.85 27.7542C170.041 28.2524 168.27 29.1536 166.79 30.3243C165.981 30.9644 165.237 31.7004 164.512 32.45C163.839 33.1451 163.207 34.1972 162.353 34.629C162.169 34.7227 161.955 34.7147 161.757 34.633L161.758 34.6319ZM198.248 52.9996C197.905 52.8561 197.628 52.4611 197.677 52.0128C198.753 41.8955 196.33 32.4023 194.894 27.9052C197.892 32.0091 200.102 36.7832 201.307 41.7303C201.384 42.0453 201.593 42.2722 201.835 42.3727C202.098 42.4822 202.397 42.4419 202.597 42.2064C205.607 38.6524 210.186 36.8047 214.871 37.3404C216.307 37.5044 217.742 37.8908 219.134 38.4702C221.994 39.6613 224.67 41.6667 226.79 44.2357C227.337 44.899 226.883 45.8263 226.134 45.5851C221.342 44.0513 216.31 44.4666 211.816 45.9715C207.155 47.5349 202.969 50.1947 198.868 52.9492C198.674 53.0808 198.449 53.0842 198.248 53.0002V52.9996ZM271.506 142.398C271.519 142.398 271.532 142.398 271.547 142.399C271.531 142.398 271.518 142.398 271.506 142.398ZM271.609 142.4C271.689 142.402 271.768 142.404 271.85 142.406C271.768 142.404 271.688 142.402 271.609 142.4ZM147.351 90.4251C147.353 90.4263 147.355 90.4268 147.356 90.4274C147.355 90.4268 147.353 90.4263 147.351 90.4251ZM147.347 90.4235C141.031 87.7916 135.08 83.5997 130.218 78.1009C135.079 83.5997 141.032 87.7921 147.347 90.4235ZM212.628 117.337C212.631 117.338 212.634 117.34 212.637 117.341C212.634 117.34 212.631 117.339 212.628 117.337ZM212.628 117.337C212.488 117.279 212.349 117.218 212.208 117.153C207.551 115.029 203.795 109.974 202.836 104.577C203.795 109.975 207.551 115.029 212.208 117.153C212.347 117.217 212.488 117.279 212.628 117.337ZM295.342 150.828C291.263 149.127 287.604 145.643 285.446 141.329C287.603 145.641 291.263 149.127 295.342 150.828ZM297.025 151.42C297.043 151.425 297.062 151.43 297.08 151.435C301.891 152.81 306.941 151.614 310.371 148.295C306.941 151.614 301.891 152.81 297.08 151.435C297.061 151.43 297.043 151.425 297.025 151.42ZM94.084 66.6858C94.0862 66.6863 94.0868 66.6869 94.0885 66.6875C94.0874 66.6869 94.0862 66.6863 94.084 66.6858ZM94.0795 66.6835C87.7551 64.0482 81.819 59.6089 77.1159 53.9683C76.8195 53.6114 76.5314 53.2595 76.2361 52.8912C76.2069 52.8907 76.1789 52.8901 76.1498 52.8895C76.1789 52.8901 76.2064 52.8907 76.2361 52.8912C76.5314 53.2595 76.8189 53.6108 77.1159 53.9683C81.819 59.6089 87.7562 64.0488 94.0795 66.6835ZM185.088 104.485C185.089 104.486 185.091 104.486 185.092 104.487C185.091 104.486 185.089 104.486 185.088 104.485ZM185.082 104.483C179.652 102.221 174.661 98.0956 171.371 92.594C174.659 98.0951 179.653 102.22 185.082 104.483ZM44.5176 43.5944C44.5187 43.595 44.5198 43.595 44.5204 43.5956C44.5193 43.595 44.5182 43.5944 44.5176 43.5944ZM108.426 69.3217C108.462 69.3194 108.498 69.3171 108.533 69.3148C108.498 69.3165 108.462 69.3188 108.426 69.3217ZM108.54 69.3131C108.544 69.3137 108.546 69.3131 108.549 69.3126C108.546 69.3131 108.543 69.3137 108.54 69.3131ZM108.769 69.2984C108.788 69.2978 108.808 69.2967 108.828 69.2944C108.808 69.2967 108.788 69.2973 108.769 69.2984ZM108.956 69.2859C108.96 69.2848 108.963 69.2848 108.966 69.2848C108.962 69.2842 108.959 69.2842 108.956 69.2859ZM109.043 69.2791C109.07 69.2768 109.099 69.2746 109.126 69.2717C109.098 69.274 109.07 69.2763 109.043 69.2791ZM130.177 78.0561C130.151 78.026 130.124 77.996 130.097 77.9653C130.124 77.9965 130.151 78.026 130.177 78.0561ZM109.131 69.2728C109.161 69.2706 109.189 69.2672 109.219 69.2644C109.189 69.2672 109.161 69.27 109.131 69.2728ZM109.366 69.2536C109.369 69.253 109.371 69.253 109.374 69.2513C109.371 69.2536 109.369 69.2536 109.366 69.2536ZM13.03 28.6003C10.2839 27.4569 7.62301 25.9536 5.12967 24.1144C7.62189 25.9536 10.2845 27.4574 13.03 28.6003ZM318.579 155.204C318.58 155.204 318.58 155.204 318.581 155.204C318.58 155.204 318.58 155.204 318.579 155.204ZM318.57 155.2C315.462 153.903 312.598 151.55 310.533 148.534C312.597 151.549 315.462 153.903 318.57 155.2ZM321.017 155.985C325.122 156.931 329.325 155.942 332.395 153.313C329.325 155.942 325.122 156.93 321.017 155.985ZM70.7035 51.6848C70.7047 51.6854 70.7058 51.686 70.7075 51.6865C70.7063 51.686 70.7052 51.6854 70.7035 51.6848ZM70.6979 51.6831C67.8022 50.4755 65.0993 48.4157 63.0307 45.7287C65.0981 48.4151 67.8022 50.4755 70.6979 51.6831ZM225.442 115.028C225.449 115.021 225.456 115.015 225.464 115.007C225.456 115.015 225.449 115.022 225.442 115.028ZM225.483 114.987C225.492 114.978 225.501 114.968 225.51 114.958C225.501 114.968 225.491 114.979 225.483 114.987ZM56.4323 44.133C56.4508 44.1245 56.4715 44.116 56.4917 44.1086C56.4715 44.116 56.4513 44.1245 56.4323 44.133ZM56.4967 44.1063C56.5264 44.0955 56.5544 44.0836 56.5841 44.0705C56.5544 44.083 56.5264 44.095 56.4967 44.1063ZM56.6026 44.0643C56.6133 44.0598 56.6245 44.0552 56.6351 44.0512C56.6245 44.0552 56.6138 44.0598 56.6026 44.0643ZM121.812 69.9555C121.57 69.8324 121.325 69.72 121.08 69.6185C121.325 69.7206 121.57 69.8324 121.812 69.9555ZM121.073 69.6156C121.075 69.6162 121.078 69.6173 121.079 69.6179C121.078 69.6173 121.076 69.6162 121.073 69.6156ZM340.492 160.346C340.493 160.347 340.494 160.347 340.495 160.347C340.494 160.347 340.492 160.346 340.492 160.346ZM60.9302 43.5298C60.8467 43.4855 60.7621 43.4458 60.6786 43.4106C60.7621 43.4458 60.8467 43.4844 60.9302 43.5298ZM60.6624 43.4038C60.668 43.406 60.6725 43.4077 60.6775 43.41C60.6719 43.4077 60.6674 43.406 60.6624 43.4038ZM356.555 165.241C356.556 165.242 356.557 165.242 356.558 165.242C356.557 165.242 356.555 165.242 356.555 165.241ZM356.549 165.239C356.024 165.02 355.506 164.733 355 164.444C355.506 164.734 356.024 165.02 356.549 165.239ZM354.899 164.386C354.876 164.372 354.852 164.359 354.828 164.345C353.727 163.716 352.594 163.073 351.646 162.14C352.594 163.074 353.727 163.716 354.828 164.345C354.852 164.359 354.876 164.372 354.899 164.386ZM349.021 161.109C349.057 161.1 349.092 161.091 349.128 161.081C349.092 161.091 349.057 161.1 349.021 161.109ZM349.214 161.059C349.223 161.058 349.232 161.055 349.241 161.052C349.232 161.055 349.223 161.058 349.214 161.059ZM351.38 161.877C351.366 161.863 351.354 161.849 351.34 161.836C351.353 161.849 351.366 161.863 351.38 161.877ZM351.307 161.803C351.299 161.795 351.291 161.787 351.284 161.779C351.292 161.787 351.299 161.796 351.307 161.803ZM351.276 161.773C350.864 161.353 350.638 161.104 350.377 160.993C350.638 161.105 350.864 161.353 351.276 161.773Z" fill="var(--fill-0, #CCF593)"/>
<path id="Vector_7" d="M253.575 138.411C253.574 138.411 253.573 138.41 253.573 138.41C251.109 137.384 248.687 136.171 246.337 134.787C246.305 134.769 246.275 134.75 246.244 134.732C242.19 132.343 238.327 129.429 234.805 126.065C233.929 125.236 225.257 115.964 225.485 115.006C225.491 114.987 225.498 114.972 225.51 114.958C225.501 114.968 225.492 114.979 225.483 114.987C225.476 114.994 225.469 115 225.463 115.007C225.456 115.014 225.449 115.022 225.442 115.029C222.227 118.31 217.146 119.214 212.637 117.34C212.634 117.339 212.631 117.338 212.628 117.336C212.488 117.278 212.347 117.216 212.208 117.152C207.551 115.028 203.795 109.973 202.836 104.575C202.788 104.599 202.742 104.621 202.694 104.644C202.688 104.647 202.681 104.651 202.675 104.653C197.374 107.195 190.976 106.933 185.093 104.485C185.091 104.485 185.089 104.484 185.088 104.483C185.086 104.482 185.085 104.482 185.083 104.481C179.654 102.218 174.66 98.0932 171.372 92.5922C171.367 92.5854 171.362 92.5763 171.358 92.5689C171.349 92.5536 171.34 92.5394 171.332 92.5235C171.324 92.511 171.315 92.4957 171.307 92.4827C163.687 94.5556 155.237 93.7055 147.356 90.425C147.355 90.4244 147.353 90.4239 147.35 90.4227C147.349 90.4222 147.348 90.4216 147.347 90.4216C141.031 87.7903 135.079 83.5967 130.217 78.0985C130.205 78.0843 130.191 78.069 130.178 78.0542C130.152 78.0242 130.124 77.9941 130.098 77.9635C130.077 77.9402 130.059 77.9186 130.039 77.8959C127.488 74.978 125.105 71.6306 121.84 69.9684C121.83 69.9628 121.821 69.9582 121.812 69.9543C121.569 69.8311 121.325 69.7187 121.08 69.6172C121.08 69.6172 121.08 69.6172 121.079 69.6166C121.077 69.616 121.076 69.6155 121.073 69.6143C117.287 68.0402 113.276 68.9181 109.374 69.25C109.371 69.2523 109.369 69.2523 109.367 69.2523C109.357 69.2517 109.345 69.2528 109.337 69.254C109.301 69.2562 109.266 69.2602 109.232 69.2625C109.228 69.2625 109.224 69.2631 109.221 69.2631C109.191 69.2659 109.162 69.2688 109.133 69.271C109.131 69.2705 109.13 69.271 109.128 69.2704C109.101 69.2727 109.072 69.2756 109.045 69.2778C109.019 69.2801 108.993 69.2818 108.968 69.2835C108.964 69.2835 108.962 69.2829 108.958 69.2846C108.937 69.2852 108.917 69.2875 108.896 69.2886C108.893 69.2892 108.892 69.2886 108.89 69.2892C108.87 69.2897 108.85 69.292 108.83 69.2931C108.81 69.2954 108.791 69.296 108.771 69.2971C108.698 69.3022 108.624 69.3079 108.551 69.3113C108.548 69.3119 108.546 69.3124 108.542 69.3119C108.539 69.3124 108.538 69.313 108.536 69.3136C108.5 69.3153 108.464 69.3176 108.428 69.3204C103.665 69.5939 98.7702 68.6343 94.0907 66.6856C94.0896 66.6851 94.0884 66.6845 94.0862 66.6834C94.0851 66.6828 94.0828 66.6823 94.0817 66.6817C87.7584 64.0469 81.8213 59.6076 77.1182 53.9665C76.8211 53.6095 76.5336 53.2577 76.2383 52.8894C76.2092 52.8888 76.1811 52.8883 76.152 52.8877C74.3328 52.8423 72.484 52.4246 70.7086 51.6852C70.7074 51.6847 70.7063 51.6841 70.7052 51.6841C70.703 51.683 70.7024 51.683 70.6996 51.6819C67.8039 50.4749 65.0998 48.4144 63.0324 45.728C63.024 45.7172 63.0145 45.7053 63.0061 45.6939C62.3952 44.8841 61.7883 43.9972 60.9538 43.5404C60.9459 43.537 60.9398 43.533 60.9319 43.5285C60.8484 43.4831 60.7638 43.4445 60.6797 43.4099C60.6797 43.4099 60.6797 43.4099 60.6792 43.4093C60.6736 43.407 60.6691 43.4053 60.6629 43.4025C59.3661 42.8719 58.0188 43.4803 56.7769 43.9927C56.7444 44.0057 56.7125 44.0188 56.6811 44.0318C56.6654 44.0369 56.6503 44.0443 56.6351 44.0505C56.6245 44.0545 56.6138 44.0591 56.6032 44.0636C56.5965 44.0665 56.5914 44.0675 56.5847 44.0704C56.555 44.0829 56.527 44.0948 56.4973 44.1062C56.4956 44.1073 56.4933 44.1073 56.4917 44.1085C56.472 44.1158 56.4513 44.1243 56.4328 44.1323C52.7374 45.5759 48.4893 45.2451 44.5226 43.5943C44.5215 43.5937 44.5204 43.5932 44.5198 43.5932C44.5176 43.5921 44.5165 43.5921 44.5142 43.5909C39.1022 41.3358 34.2141 36.6236 31.9668 30.6107C31.9136 30.6226 31.8598 30.6345 31.806 30.6464C25.7623 31.9238 19.1891 31.1634 13.0395 28.6035C13.0373 28.603 13.0362 28.6024 13.0339 28.6013C13.0328 28.6007 13.0328 28.6007 13.0311 28.6002C10.2856 27.4567 7.62301 25.9529 5.13079 24.1137C5.06466 24.0649 4.99853 24.015 4.9324 23.9662C3.23206 22.7008 1.48801 21.0784 0.977461 18.9356C0.754971 18.0067 0.747687 17.1986 0.90909 16.499C1.11028 15.629 1.57432 14.9282 2.21601 14.3755C5.28827 16.8514 8.6357 18.8562 12.1092 20.3026C15.3866 21.668 18.7761 22.5368 22.1543 22.8392C26.4349 23.2319 30.8779 22.808 34.9634 24.5093C35.5373 24.7482 36.1039 25.0285 36.6621 25.3593C41.0384 27.9635 44.3657 33.3935 48.7606 35.2236C49.3591 35.4727 49.9778 35.656 50.6223 35.7553C55.5429 36.5288 60.279 32.022 64.7647 33.8895C65.1273 34.0405 65.4893 34.2334 65.8491 34.4746C67.7551 35.7445 68.867 37.9747 70.0921 40.131C70.6626 41.1213 71.2494 42.0916 71.9606 42.9423C73.3852 44.6674 75.1113 45.7546 76.9926 46.5378C79.7449 47.684 82.8272 48.1766 85.7734 49.0533C86.6152 49.2894 87.4463 49.572 88.2538 49.9079C88.4556 49.9919 88.6568 50.081 88.8552 50.1713C91.8703 51.5604 94.6074 53.8955 97.6567 55.1655C97.7301 55.1962 97.8035 55.2257 97.8769 55.2552C105.604 58.3365 113.085 53.7298 119.388 49.2758C121.391 55.7772 125.932 61.5693 131.502 64.6762C132.219 65.0774 132.952 65.4327 133.696 65.7425C138.712 67.8313 144.209 67.8376 148.728 65.6722C150.025 72.6197 154.795 79.0785 160.748 81.938C161.025 82.0713 161.304 82.1962 161.586 82.3131C167.327 84.7038 173.772 83.7351 178.042 79.7685C179.959 84.138 183.576 87.6654 187.604 89.3429C188.855 89.8638 190.147 90.206 191.441 90.3399C196.893 90.9034 202.081 87.7097 204.262 82.4589C204.792 86.8216 206.63 90.8222 209.196 94.4398C210.657 96.5111 212.339 98.5267 214.43 99.6753C214.711 99.8285 214.993 99.9635 215.276 100.082C218.633 101.479 222.251 100.532 225.535 99.5595C227.187 105.501 233.049 108.937 238.275 111.188C238.57 111.316 238.867 111.443 239.167 111.568C243.471 113.36 248.199 114.705 251.929 112.683C253.017 112.103 254.11 111.225 255.379 111.584C255.472 111.61 255.562 111.641 255.648 111.677C257.258 112.347 257.929 114.685 258.728 116.498C259.917 119.19 262.164 121.211 264.642 122.243C267.313 123.355 270.252 123.32 272.429 121.74C272.577 124.587 274.331 127.481 276.715 128.789C276.932 128.907 277.152 129.013 277.375 129.106C279.619 130.04 282.146 129.625 283.754 127.992C284.093 127.649 284.556 127.227 285.002 127.414C285.052 127.434 285.101 127.463 285.152 127.499C285.359 127.662 285.482 127.935 285.582 128.198C287.754 133.434 291.157 138.488 295.816 140.993C296.161 141.179 296.515 141.345 296.872 141.494C301.341 143.355 306.621 142.351 308.772 138.162C310.449 141.697 313.453 144.423 316.754 145.797C319.247 146.835 321.909 147.104 324.297 146.366C325.536 145.979 326.548 144.977 327.688 144.328C328.846 146.786 330.209 149.3 332.285 150.848C332.712 151.165 333.175 151.428 333.655 151.628C335.514 152.403 337.617 152.237 338.711 150.693C339.726 152.932 341.609 154.7 343.687 155.564C344.837 156.043 346.046 156.245 347.2 156.097C348.115 155.971 348.996 155.664 349.932 155.662C350.724 155.656 351.525 155.877 352.306 156.088C354.399 156.675 356.483 157.246 358.579 157.821C359.069 157.958 359.568 158.097 360.046 158.296C360.473 158.474 360.885 158.699 361.257 159.011C361.76 159.424 362.155 159.95 362.435 160.549C362.397 160.853 362.342 161.156 362.273 161.455C362.141 162.022 361.956 162.572 361.712 163.094C361.64 163.249 361.563 163.401 361.481 163.549C360.807 164.792 359.593 165.661 358.228 165.631C358.218 165.63 358.21 165.63 358.2 165.63C357.648 165.618 357.1 165.466 356.56 165.241C356.559 165.241 356.558 165.24 356.558 165.24C356.555 165.239 356.554 165.239 356.552 165.238C356.027 165.02 355.509 164.732 355.002 164.443C354.991 164.436 354.979 164.429 354.967 164.421C354.965 164.421 354.963 164.42 354.96 164.419C354.941 164.407 354.922 164.396 354.902 164.385C354.879 164.371 354.855 164.358 354.831 164.344C353.73 163.716 352.596 163.073 351.648 162.139C351.604 162.098 351.561 162.055 351.522 162.016C351.521 162.015 351.52 162.014 351.52 162.014C351.491 161.985 351.464 161.958 351.438 161.931C351.436 161.929 351.434 161.929 351.431 161.927C351.426 161.92 351.419 161.915 351.413 161.909C351.41 161.905 351.406 161.9 351.402 161.897C351.396 161.891 351.389 161.884 351.381 161.877C351.368 161.863 351.355 161.849 351.341 161.836C351.338 161.833 351.335 161.829 351.331 161.826C351.328 161.822 351.325 161.82 351.323 161.816C351.318 161.811 351.313 161.806 351.309 161.801C351.3 161.795 351.293 161.786 351.285 161.778C351.283 161.776 351.281 161.773 351.278 161.771C350.866 161.351 350.641 161.103 350.379 160.991C350.378 160.991 350.376 160.99 350.373 160.989C350.372 160.988 350.371 160.988 350.37 160.988C350.107 160.879 349.805 160.911 349.243 161.051C349.234 161.054 349.225 161.057 349.216 161.059C349.211 161.059 349.207 161.061 349.203 161.063C349.196 161.064 349.189 161.065 349.182 161.068C349.164 161.071 349.146 161.077 349.129 161.081C349.094 161.09 349.058 161.1 349.022 161.109C349.013 161.112 349.004 161.113 348.995 161.116C347.029 161.653 344.899 161.614 342.813 161.107C342.783 161.1 342.754 161.094 342.725 161.085C342.718 161.084 342.709 161.081 342.702 161.08C341.959 160.894 341.221 160.648 340.498 160.346C340.497 160.346 340.496 160.345 340.495 160.345C340.493 160.344 340.491 160.344 340.488 160.343C339.309 159.851 338.164 159.211 337.088 158.433C337.088 158.431 337.087 158.431 337.086 158.43C337.059 158.411 337.033 158.393 337.007 158.373C336.943 158.326 336.879 158.279 336.815 158.232C336.404 157.912 332.239 153.936 332.372 153.359C332.376 153.34 332.384 153.326 332.398 153.314C329.328 155.942 325.124 156.93 321.02 155.985C321.004 155.983 320.988 155.978 320.972 155.974C320.167 155.789 319.367 155.53 318.584 155.204C318.583 155.204 318.583 155.204 318.581 155.203C318.579 155.202 318.575 155.2 318.572 155.2C315.463 153.903 312.599 151.549 310.535 148.534C310.524 148.517 310.512 148.5 310.501 148.484C310.465 148.433 310.432 148.382 310.398 148.331C310.39 148.32 310.381 148.307 310.373 148.295C306.944 151.614 301.894 152.809 297.082 151.434C297.064 151.43 297.045 151.425 297.027 151.42C296.464 151.257 295.904 151.06 295.353 150.831L295.352 150.831C295.35 150.83 295.347 150.828 295.345 150.828C291.266 149.127 287.606 145.641 285.448 141.328C285.427 141.285 285.405 141.242 285.384 141.199C280.87 142.101 276.631 142.488 271.947 142.407C271.915 142.406 271.883 142.406 271.852 142.406C271.771 142.403 271.69 142.402 271.611 142.399C271.591 142.399 271.57 142.398 271.549 142.398C271.534 142.398 271.521 142.398 271.508 142.397C265.519 142.234 259.429 140.846 253.585 138.414C253.583 138.413 253.58 138.412 253.578 138.411H253.575ZM241.129 119.698C240.403 119.395 239.699 120.352 240.325 121.203C243.163 125.064 247.003 128.19 251.106 129.899C251.233 129.951 251.359 130.001 251.487 130.052C253.602 130.884 255.806 131.418 257.974 131.591C260.186 131.764 262.689 131.715 264.368 130.222C264.93 129.724 264.521 128.744 263.882 128.478C263.822 128.453 263.759 128.433 263.695 128.422C261.754 128.077 259.835 128.521 257.899 128.436C255.932 128.344 253.952 127.954 252.016 127.248C251.634 127.111 251.256 126.962 250.88 126.805C247.394 125.354 244.175 123.139 241.525 120.003C241.399 119.853 241.263 119.753 241.13 119.698H241.129ZM178.049 89.1766C177.258 88.8474 176.344 89.5557 176.927 90.5817C178.806 93.89 181.79 96.641 185.029 97.9905C187.535 99.0335 190.192 99.2383 192.61 98.2146C193.539 97.8225 193.047 96.51 192.244 96.1757C192.109 96.119 191.964 96.09 191.817 96.0991C189.58 96.2239 187.319 96.1082 185.11 95.1883C184.901 95.1009 184.691 95.0073 184.482 94.9046C182.196 93.7821 180.118 91.9969 178.629 89.6822C178.466 89.4291 178.262 89.2645 178.049 89.176L178.049 89.1766Z" fill="var(--fill-0, #E1FAC0)"/>
</g>
</svg>
