<svg preserveAspectRatio="none" width="100%" height="100%" overflow="visible" style="display: block;" viewBox="0 0 166.488 70.6904" fill="none" xmlns="http://www.w3.org/2000/svg">
<g id="Group">
<path id="Vector" d="M163.677 43.1681C161.651 43.9903 158.911 42.4678 158.911 40.2547C157.682 45.9515 153.655 50.9639 148.4 53.3484C143.136 55.7239 136.754 55.3993 131.748 52.5023C130.889 61.4036 122.626 68.931 113.786 68.8414C104.954 68.7523 96.8292 61.0705 96.146 52.1511C95.4869 55.6427 90.0463 57.6526 86.9769 57.7905C84.2358 57.9125 81.4567 56.9932 79.3175 55.2437C75.2993 59.7835 68.9513 61.1188 63.1402 60.061C60.328 59.548 57.6436 58.3603 55.3543 56.6346C54.2362 55.797 53.2162 54.8284 52.324 53.7536C51.9866 53.3473 49.9209 50.9225 50.1709 50.4175C46.7063 57.3825 36.9179 59.5236 30.1597 55.7715C28.9609 55.1127 27.8535 54.291 26.8476 53.3541C24.3161 51.0025 22.5003 47.9348 21.4075 44.648C20.3623 41.5065 20.2261 38.1704 19.0201 35.0777C17.8707 32.1405 16.0386 29.4632 13.6916 27.3794C11.0329 25.0279 7.72918 23.4497 4.25734 22.7989C2.99974 22.5463 1.69283 22.4385 0.422899 22.4766C0.104576 22.4851 -0.11124 22.1383 0.0608106 21.8676C1.6272 19.3986 4.14013 17.5975 6.8851 16.6305C11.4498 15.0189 16.5211 15.3287 21.0612 16.744C24.8704 17.9243 29.0091 19.4293 32.6821 17.8829C34.5865 17.0856 36.1937 15.5075 38.227 15.1738C40.9753 14.7255 43.5712 16.6878 46.3515 16.8257C50.0565 17.0039 53.0621 14.0587 56.0677 11.845C59.0654 9.63987 63.639 8.19173 66.1772 10.9337C70.7503 4.08157 78.8759 -0.173866 87.0396 0.00545337C95.1972 0.184205 103.137 4.8062 107.404 11.845C114.485 3.87045 126.773 2.45464 135.468 6.27823C144.165 10.1029 150.127 19.5586 149.909 29.1528C154.394 28.1035 159.336 29.2504 162.929 32.1802C163.844 32.9372 164.689 33.8321 165.332 34.8411C165.879 35.7036 166.272 36.6393 166.425 37.6483C166.762 39.845 165.718 42.343 163.677 43.1653V43.1681Z" fill="var(--fill-0, #EDFBD9)"/>
<path id="Vector_2" d="M163.677 45.0162C161.652 45.8374 158.911 44.3159 158.911 42.1028C157.682 47.7985 153.655 52.8121 148.4 55.1954C143.136 57.5714 136.754 57.2457 131.748 54.3493C130.889 63.2506 122.626 70.7792 113.786 70.6895C104.954 70.5993 96.8292 62.9175 96.146 53.9992C95.4869 57.4897 90.0464 59.4997 86.9769 59.6387C84.2358 59.7601 81.4567 58.8403 79.3175 57.0914C75.2993 61.6322 68.9513 62.9663 63.1403 61.9086C60.328 61.3956 57.6436 60.2079 55.3543 58.4822C54.2362 57.6446 53.2162 56.676 52.324 55.6023C51.9866 55.1954 49.9209 52.7707 50.1709 52.2656C46.7063 59.2318 36.9179 61.3712 30.1597 57.6202C28.9609 56.9608 27.8536 56.1391 26.8476 55.2034C24.3161 52.8512 22.5003 49.7829 21.4075 46.4956C20.3623 43.3552 20.2261 40.0185 19.0201 36.9264C17.8707 33.9886 16.0386 31.3108 13.6916 29.2288C11.0329 26.8772 2.95885 23.3305 1.93607 23.314C1.27925 23.3033 0.0519069 22.6547 0.446447 22.1235C2.02181 20.008 4.40299 19.3537 6.88512 18.4792C11.4498 16.8676 16.5212 17.1769 21.0612 18.5933C24.8704 19.7725 29.0091 21.278 32.6822 19.7322C34.5865 18.9349 36.1938 17.3562 38.227 17.0225C40.9753 16.5748 43.5713 18.536 46.3515 18.6744C50.0565 18.8538 53.0621 15.9075 56.0677 13.6938C59.0654 11.4886 63.639 10.0405 66.1772 12.7819C70.7503 5.92973 78.8759 1.6743 87.0396 1.85362C95.1972 2.03237 103.137 6.65436 107.404 13.6932C114.485 5.71861 126.773 4.30279 135.468 8.12695C144.165 11.9517 150.127 21.4079 149.909 31.0015C154.394 29.9511 159.336 31.0985 162.929 34.0278C163.844 34.7848 164.689 35.6809 165.332 36.6887C165.879 37.5512 166.272 38.4864 166.425 39.4965C166.762 41.6937 165.718 44.1917 163.677 45.014V45.0162Z" fill="var(--fill-0, #EDFBD9)"/>
<path id="Vector_3" d="M166.411 39.4125C166.249 38.4364 165.862 37.5291 165.333 36.6909C165.192 36.4713 165.043 36.2568 164.885 36.0491C164.937 35.9197 164.984 35.7909 165.027 35.6655C165.115 35.3971 165.212 35.1116 165.333 34.8438C165.879 35.7063 166.272 36.6421 166.425 37.6511C166.467 37.9252 166.488 38.2054 166.488 38.4852C166.488 38.7956 166.461 39.1055 166.411 39.4125Z" fill="var(--fill-0, #EDFBD9)"/>
<path id="Vector_4" d="M113.942 68.8431C113.89 68.8431 113.838 68.843 113.785 68.8419C104.954 68.7528 96.8287 61.071 96.1455 52.1516C95.4864 55.6432 90.0458 57.6532 86.9764 57.7911C86.8155 57.7985 86.6535 57.8019 86.4927 57.8019C83.9114 57.8019 81.3301 56.8905 79.317 55.2443C76.1562 58.8159 71.5534 60.4043 66.9041 60.4043C65.6432 60.4043 64.38 60.2874 63.1397 60.0615C60.3275 59.5485 57.6431 58.3608 55.3538 56.6352C54.2357 55.7976 53.2157 54.8289 52.3235 53.7541C51.9861 53.3478 49.9204 50.923 50.1704 50.418C47.8423 55.0984 42.6595 57.5999 37.4598 57.5999C34.92 57.5999 32.3757 57.0034 30.1592 55.7726C28.9604 55.1138 27.853 54.2921 26.8471 53.3552C24.3156 51.0036 22.4998 47.9359 21.407 44.6491C20.3618 41.5076 20.2256 38.1715 19.0196 35.0788C17.8702 32.1416 16.0381 29.4643 13.6911 27.3806C11.0324 25.029 7.72868 23.4509 4.25684 22.8C5.58281 22.615 6.9228 22.5219 8.26334 22.5219C13.4523 22.5219 18.6441 23.9088 23.0703 26.6571C27.6272 29.4808 31.3316 33.5654 35.9764 36.2427C38.4883 37.6931 41.4949 38.6346 44.3682 38.6346C46.7993 38.6346 49.1369 37.9598 50.9975 36.3488C51.8802 38.8803 54.3959 40.7347 57.0478 40.8164C57.1095 40.8181 57.1717 40.8187 57.2334 40.8187C59.8534 40.8187 62.2335 39.1413 63.3409 36.7795C63.4048 40.3931 64.835 43.5828 67.3429 46.2925C68.6134 47.668 70.1949 48.8558 72.0286 49.1735C72.3094 49.2235 72.5981 49.2485 72.8861 49.2485C74.4811 49.2485 76.0963 48.4931 76.8181 47.0745C77.42 47.9779 78.4949 48.4427 79.5653 48.4427C80.5085 48.4427 81.4478 48.0817 82.0575 47.3423C82.3316 47.0086 82.5641 46.5938 82.9659 46.4236C83.1128 46.3572 83.2669 46.3299 83.4233 46.3299C83.8055 46.3299 84.2056 46.4866 84.5811 46.6018C85.1141 46.7686 85.67 46.8503 86.2265 46.8503C87.4589 46.8503 88.6935 46.4514 89.6849 45.7069C91.1236 44.6168 91.9995 42.8173 91.9743 41.0026C92.0779 41.01 92.1817 41.0134 92.2853 41.0134C94.7613 41.0134 96.9396 38.9852 97.8733 36.641C98.886 34.1181 98.6052 31.531 98.7089 28.8866C99.1034 28.9593 99.2721 29.9847 99.4492 30.3671C100.695 33.1256 103.555 35.0629 106.553 35.1759C106.641 35.1798 106.729 35.1804 106.817 35.1804C109.725 35.1804 112.591 33.4871 113.995 30.9045C114.485 31.9294 114.999 32.9792 115.819 33.7606C116.693 34.605 117.897 35.026 119.103 35.026C120.326 35.026 121.551 34.5919 122.433 33.7277C122.915 34.6799 123.502 35.7292 124.523 36.0146C124.715 36.0696 124.908 36.094 125.1 36.094C126.208 36.094 127.3 35.2967 128.445 35.1441C128.693 36.5434 128.798 37.9678 129.167 39.3354C129.529 40.7098 130.197 42.0524 131.33 42.8911C132.063 43.4308 132.972 43.7105 133.883 43.7105C134.508 43.7105 135.134 43.5778 135.702 43.3054C135.706 43.3037 135.712 43.3025 135.719 43.3025C135.971 43.3025 137.678 44.7416 137.952 44.8761C138.745 45.2676 139.623 45.485 140.507 45.485C140.67 45.485 140.834 45.4777 140.998 45.4629C143.119 45.2762 145.081 43.7945 145.868 41.7851C146.708 42.5858 147.868 43.0188 149.024 43.0188C149.593 43.0188 150.162 42.9138 150.689 42.6965C151.47 42.3708 152.144 41.8089 152.634 41.1263C152.892 40.7682 153.093 40.3778 153.245 39.9709C153.375 39.6044 153.358 38.9937 153.567 38.7094C153.905 39.0352 154.249 39.303 154.668 39.5391C155.231 39.8586 155.886 40.1576 156.515 40.1576C156.766 40.1576 157.013 40.1099 157.248 39.9959C157.569 39.8325 157.827 39.5641 158.044 39.2707C158.639 38.4819 158.96 37.4883 158.944 36.5043C159.289 36.8947 159.627 37.2936 159.971 37.6835C160.085 37.8145 160.197 37.9439 160.333 38.05C160.527 38.1964 160.76 38.2776 160.994 38.3423C161.278 38.4144 161.574 38.4518 161.868 38.4518C162.313 38.4518 162.757 38.3656 163.162 38.1794C163.994 37.7907 164.541 36.9089 164.886 36.0492C165.044 36.2569 165.193 36.4714 165.333 36.691C165.863 37.5297 166.249 38.4365 166.411 39.4126C166.144 41.0469 165.181 42.562 163.677 43.168C163.297 43.323 162.891 43.3945 162.483 43.3945C160.72 43.3945 158.911 42.053 158.911 40.2547C157.682 45.9515 153.655 50.9639 148.4 53.3484C146.06 54.4045 143.498 54.9265 140.936 54.9265C137.734 54.9265 134.529 54.1105 131.748 52.5023C130.894 61.3514 122.723 68.8425 113.942 68.8425L113.942 68.8431ZM101.518 50.4367C101.205 50.4367 100.866 50.7341 100.967 51.1052C102.157 55.4951 104.872 59.6444 108.843 61.9183C110.83 63.0566 113.087 63.7018 115.321 63.7018C117.483 63.7018 119.62 63.0975 121.472 61.7543C123.38 60.3702 124.834 58.341 125.027 55.9281C125.056 55.5536 124.705 55.3073 124.372 55.3073C124.168 55.3073 123.972 55.4003 123.875 55.612C122.372 58.9027 119.512 61.3213 115.864 61.5902C115.61 61.6095 115.358 61.6181 115.107 61.6181C111.281 61.6181 107.809 59.4821 105.377 56.5597C103.935 54.8249 102.842 52.756 101.916 50.7012C101.831 50.5139 101.678 50.4367 101.518 50.4367ZM112.437 56.2345C112.224 56.2345 112.013 56.3304 111.88 56.5126C111.686 56.7759 111.661 57.2208 111.934 57.4517C112.771 58.1554 113.817 58.6077 114.914 58.6077C114.926 58.6077 114.937 58.6077 114.948 58.6077C116.089 58.5975 117.179 58.2082 117.954 57.3405C118.436 56.8003 118.014 56.0297 117.409 56.0297C117.289 56.0297 117.16 56.0597 117.031 56.1301L116.902 56.1977C116.893 56.2033 116.839 56.2277 116.805 56.2448C116.779 56.255 116.743 56.2697 116.737 56.2725L116.533 56.3554C116.53 56.3565 116.356 56.4235 116.361 56.4235C116.362 56.4235 116.384 56.4161 116.438 56.3968L116.303 56.4479C116.212 56.4802 116.12 56.5097 116.027 56.5364C115.83 56.5926 115.627 56.6448 115.426 56.689L115.248 56.7254C115.192 56.7373 115.183 56.743 115.195 56.743C115.198 56.743 115.204 56.7418 115.21 56.7407C115.125 56.7543 115.025 56.7498 114.948 56.7543C114.873 56.7583 114.798 56.7589 114.722 56.7589C114.591 56.7589 114.46 56.7549 114.328 56.752C114.232 56.7492 114.135 56.7447 114.04 56.7367L113.978 56.7299C113.979 56.7299 113.979 56.7299 113.979 56.7299C113.988 56.7299 113.896 56.718 113.869 56.7123C113.667 56.6754 113.467 56.6232 113.272 56.5557L113.138 56.5052L113.115 56.4972C113.004 56.445 112.896 56.3883 112.79 56.3287C112.679 56.2663 112.558 56.2351 112.435 56.2351L112.437 56.2345ZM55.1946 50.3862C54.9435 50.3862 54.7199 50.6461 54.8544 50.9633C55.8167 53.223 57.6279 55.0003 59.8455 56.0007C61.0795 56.5568 62.386 56.8831 63.7332 56.9785C63.9854 56.9961 64.2555 57.008 64.5324 57.008C65.651 57.008 66.8912 56.8156 67.6657 56.0524C67.9146 55.8066 67.812 55.3056 67.45 55.2307C67.1519 55.1683 66.8453 55.1461 66.5354 55.1461C66.1235 55.1461 65.7054 55.1858 65.2879 55.2255C64.8704 55.2653 64.4534 55.3056 64.046 55.3056C64.0095 55.3056 63.972 55.3044 63.935 55.3044C62.7401 55.2812 61.5453 55.0383 60.4379 54.5775C58.4842 53.7626 56.7688 52.2838 55.5224 50.5684C55.4283 50.4407 55.3089 50.3862 55.1946 50.3862ZM23.1095 37.747C22.905 37.747 22.6892 37.8866 22.6987 38.1312C22.8377 42.1767 24.3935 46.0661 27.0684 49.0844C28.442 50.6336 30.1267 51.9836 31.9655 52.9194C33.5739 53.7377 35.2389 54.1531 36.9739 54.1531C37.545 54.1531 38.1234 54.1077 38.7107 54.0175C40.0059 53.8183 41.2635 53.4137 42.4774 52.9228C43.6705 52.4405 45.0918 51.9706 46.0602 51.0978C46.5472 50.6586 46.0719 50.0253 45.5479 50.0253C45.5154 50.0253 45.4818 50.0282 45.4477 50.0338C44.4092 50.1984 43.4211 50.826 42.4426 51.2091C41.4434 51.6 40.4195 51.9428 39.3681 52.1618C38.6866 52.3043 38.0007 52.3746 37.317 52.3746C35.9467 52.3746 34.5859 52.0909 33.3048 51.5314C29.9585 50.0701 27.1872 47.167 25.4852 43.9438C24.5106 42.0995 23.7983 40.0924 23.457 38.0279C23.4251 37.8356 23.2704 37.7482 23.1095 37.7482V37.747ZM33.9942 48.2571C33.5077 48.2571 33.2449 48.8722 33.7073 49.1832C34.5726 49.7682 35.5701 50.1252 36.6192 50.1451C36.6534 50.1462 36.6876 50.1462 36.7212 50.1462C37.2105 50.1462 37.7227 50.0781 38.1907 49.9475C38.7584 49.7892 39.1994 49.4947 39.604 49.0691C39.9593 48.6969 39.7223 48.0011 39.1882 48.0011C39.182 48.0011 39.1748 48.0011 39.1675 48.0011C38.8968 48.0102 38.6328 47.9943 38.3626 48.0352C38.357 48.0363 38.1778 48.0591 38.1918 48.0591C38.1957 48.0591 38.212 48.0573 38.2462 48.0534C38.0764 48.0721 37.9099 48.0993 37.7418 48.1328C37.5378 48.1737 37.3321 48.2026 37.127 48.2418C37.0995 48.2463 37.0787 48.2492 37.0641 48.2509L36.9314 48.2667C36.8277 48.2769 36.7229 48.2809 36.6192 48.2889C36.1849 48.3241 35.7416 48.3524 35.3 48.3524C34.8937 48.3524 34.4874 48.3286 34.09 48.265C34.0575 48.2594 34.0255 48.2577 33.9942 48.2577V48.2571Z" fill="var(--fill-0, #E1FAC0)"/>
<path id="Vector_5" d="M115.321 63.7017C113.087 63.7017 110.83 63.0565 108.843 61.9182C104.872 59.6443 102.156 55.495 100.966 51.1051C100.865 50.734 101.205 50.4366 101.517 50.4366C101.677 50.4366 101.83 50.5138 101.915 50.7011C102.841 52.7564 103.934 54.8249 105.377 56.5596C107.808 59.4815 111.281 61.618 115.106 61.618C115.358 61.618 115.609 61.6094 115.863 61.5902C119.511 61.3212 122.372 58.9027 123.874 55.6119C123.972 55.4003 124.168 55.3072 124.371 55.3072C124.704 55.3072 125.055 55.5529 125.026 55.928C124.833 58.3414 123.379 60.3701 121.472 61.7542C119.62 63.0974 117.482 63.7017 115.321 63.7017Z" fill="var(--fill-0, #CCF593)"/>
<path id="Vector_6" d="M114.915 58.6072C113.818 58.6072 112.772 58.1549 111.935 57.4512C111.662 57.2203 111.686 56.7759 111.881 56.5121C112.014 56.3299 112.224 56.234 112.437 56.234C112.559 56.234 112.681 56.2652 112.792 56.3276C112.898 56.3878 113.005 56.444 113.116 56.4962L113.139 56.5041L113.274 56.5546C113.468 56.6222 113.668 56.6744 113.871 56.7112C113.898 56.7169 113.99 56.7288 113.981 56.7288C113.981 56.7288 113.981 56.7288 113.98 56.7288L114.042 56.7356C114.138 56.7441 114.233 56.7481 114.33 56.751C114.462 56.7538 114.593 56.7577 114.724 56.7577C114.799 56.7577 114.875 56.7567 114.95 56.7532C115.027 56.7487 115.127 56.7532 115.212 56.7396C115.205 56.7407 115.2 56.7419 115.197 56.7419C115.185 56.7419 115.194 56.7362 115.249 56.7243L115.428 56.688C115.629 56.6437 115.832 56.5915 116.028 56.5353C116.122 56.5086 116.213 56.4791 116.305 56.4468L116.44 56.3957C116.386 56.415 116.364 56.4224 116.362 56.4224C116.357 56.4224 116.532 56.3554 116.534 56.3543L116.739 56.2715C116.746 56.2686 116.781 56.2539 116.806 56.2436C116.84 56.2266 116.894 56.2022 116.904 56.1965L117.033 56.129C117.162 56.0592 117.29 56.0286 117.411 56.0286C118.016 56.0286 118.438 56.7992 117.956 57.3394C117.181 58.207 116.091 58.5963 114.95 58.6065C114.938 58.6065 114.928 58.6065 114.916 58.6065L114.915 58.6072Z" fill="var(--fill-0, #CCF593)"/>
<path id="Vector_7" d="M110.059 19.0983C109.732 19.0983 109.388 18.8078 109.395 18.4622C109.403 18.0247 109.43 17.6002 109.554 17.1774C109.674 16.7694 109.876 16.3575 110.078 15.9835C110.473 15.2549 110.935 14.5733 111.438 13.9196C112.338 12.7557 113.629 11.1998 115.225 11.1998C115.292 11.1998 115.359 11.2026 115.428 11.2082C115.869 11.2451 116.244 11.5573 116.244 12.0351C116.244 12.4845 115.869 12.859 115.428 12.8619C115.169 12.8636 114.936 12.9657 114.672 13.1553C114.468 13.3017 114.199 13.574 113.988 13.7885C113.525 14.2572 113.072 14.785 112.729 15.2645C112.313 15.8428 111.957 16.4533 111.623 17.0821C111.456 17.3942 111.299 17.712 111.114 18.0139C110.919 18.3328 110.675 18.6097 110.45 18.9042C110.344 19.0404 110.204 19.0977 110.059 19.0977V19.0983Z" fill="var(--fill-0, #CCF593)"/>
<path id="Vector_8" d="M115.724 17.026C115.578 17.026 115.431 16.9812 115.303 16.9125C115.129 16.8194 114.984 16.614 114.933 16.4256C114.875 16.2128 114.914 15.9892 115.015 15.7969C115.425 15.0098 116.088 14.3702 116.828 13.8992C116.955 13.8181 117.101 13.7852 117.247 13.7852C117.327 13.7852 117.406 13.7943 117.484 13.813C117.7 13.8624 117.875 14.0247 117.991 14.208C118.108 14.3912 118.133 14.6647 118.077 14.8707C118.02 15.0835 117.871 15.2708 117.687 15.3854C117.568 15.4587 117.453 15.5364 117.341 15.6198C117.015 15.8899 116.73 16.2032 116.467 16.5363L116.406 16.6202C116.334 16.7422 116.238 16.8399 116.118 16.9125L115.925 16.9954C115.859 17.0164 115.792 17.0254 115.725 17.0254L115.724 17.026Z" fill="var(--fill-0, #CCF593)"/>
<path id="Vector_9" d="M36.974 54.1525C35.2389 54.1525 33.5739 53.7371 31.9655 52.9188C30.1267 51.9836 28.4421 50.6336 27.0684 49.0838C24.3935 46.0655 22.8372 42.176 22.6988 38.1306C22.6898 37.8866 22.905 37.7464 23.1096 37.7464C23.2704 37.7464 23.4251 37.8338 23.4571 38.0262C23.7978 40.0912 24.5107 42.0977 25.4852 43.942C27.1873 47.1658 29.9591 50.0684 33.3048 51.5296C34.586 52.0891 35.9468 52.3729 37.317 52.3729C38.0008 52.3729 38.6873 52.3031 39.3682 52.1601C40.4195 51.941 41.4428 51.5983 42.4426 51.2073C43.4211 50.8242 44.4092 50.1972 45.4477 50.0321C45.4819 50.0264 45.5155 50.0235 45.548 50.0235C46.072 50.0235 46.5472 50.6568 46.0602 51.0961C45.0918 51.9688 43.6706 52.4387 42.4774 52.921C41.2636 53.4113 40.0059 53.8159 38.7108 54.0157C38.1234 54.1059 37.5451 54.1513 36.974 54.1513V54.1525Z" fill="var(--fill-0, #CCF593)"/>
<path id="Vector_10" d="M36.7211 50.1467C36.6875 50.1467 36.6533 50.1467 36.6191 50.1456C35.57 50.1252 34.5725 49.7682 33.7072 49.1837C33.2454 48.8722 33.5076 48.2577 33.9941 48.2577C34.0249 48.2577 34.0569 48.2599 34.09 48.265C34.4873 48.3286 34.8936 48.3524 35.2999 48.3524C35.7421 48.3524 36.1848 48.324 36.6191 48.2889C36.7228 48.2815 36.8276 48.2769 36.9313 48.2667L37.0641 48.2508C37.0792 48.2491 37.1 48.2463 37.1269 48.2417C37.3315 48.2026 37.5377 48.1737 37.7417 48.1328C37.9099 48.0999 38.0763 48.0721 38.2461 48.0533C38.2119 48.0573 38.1956 48.059 38.1917 48.059C38.1783 48.059 38.3575 48.0363 38.3626 48.0352C38.6327 47.9943 38.8962 48.0102 39.1674 48.0011C39.1747 48.0011 39.1819 48.0011 39.1881 48.0011C39.7222 48.0011 39.9593 48.6974 39.6039 49.0691C39.1993 49.4947 38.7589 49.7892 38.1906 49.9475C37.7227 50.078 37.2104 50.1461 36.7211 50.1461V50.1467Z" fill="var(--fill-0, #CCF593)"/>
<path id="Vector_11" d="M23.7417 22.4214C23.6885 22.4214 23.6352 22.4123 23.5797 22.3947C21.0427 21.5577 18.6485 20.4415 15.9848 20.0341C14.9906 19.882 13.9796 19.8099 12.9657 19.8099C11.3074 19.8099 9.64134 20.0017 8.03683 20.3467C7.98752 20.357 7.94099 20.3615 7.89727 20.3615C7.30658 20.3615 7.11661 19.4842 7.74261 19.2697C9.69794 18.5984 11.7307 18.2818 13.779 18.2818C14.5844 18.2818 15.393 18.3305 16.1995 18.4265C18.9954 18.759 21.9864 19.4813 24.1486 21.4045C24.542 21.7546 24.2086 22.4208 23.7412 22.4208L23.7417 22.4214Z" fill="var(--fill-0, #CCF593)"/>
<path id="Vector_12" d="M73.0637 12.1395C72.4024 12.1395 71.8325 11.3246 72.4461 10.7401C74.1156 9.1472 75.9179 7.7081 77.9136 6.55557C80.7785 4.90084 84.0648 3.76934 87.3853 3.76934C87.9155 3.76934 88.4457 3.79769 88.9748 3.85784C92.4791 4.25563 96.1779 5.81503 98.0183 9.03597C98.2571 9.45476 97.913 9.8435 97.5364 9.8435C97.4109 9.8435 97.2808 9.80038 97.1687 9.6988C95.8186 8.48726 94.3374 7.45049 92.6337 6.81492C90.8863 6.1629 89.0896 5.83549 87.2856 5.83549C85.8453 5.83549 84.4 6.0443 82.9681 6.46536C79.4901 7.48793 76.3556 9.56883 73.6162 11.9249C73.4408 12.0759 73.2481 12.1406 73.0637 12.1395Z" fill="var(--fill-0, #CCF593)"/>
<path id="Vector_13" d="M92.2158 13.8969C92.1256 13.8969 92.0309 13.8731 91.9367 13.8169C90.9997 13.2653 90.0257 12.7381 88.9799 12.4266C88.2682 12.2149 87.5222 12.1055 86.778 12.1055C86.4339 12.1055 86.0903 12.1287 85.7501 12.1769C85.7244 12.1803 85.6986 12.182 85.674 12.182C85.1556 12.182 84.9369 11.4216 85.5035 11.2718C86.1856 11.0914 86.9142 10.9966 87.6495 10.9966C89.486 10.9966 91.3595 11.5896 92.6188 12.9226C92.9853 13.3113 92.6569 13.8981 92.2158 13.8981V13.8969Z" fill="var(--fill-0, #CCF593)"/>
<path id="Vector_14" d="M64.5324 57.0079C64.2556 57.0079 63.9855 56.996 63.7333 56.9784C62.3866 56.8825 61.0796 56.5562 59.8455 56.0007C57.6279 55.0008 55.8167 53.2229 54.8544 50.9633C54.7199 50.6455 54.9436 50.3862 55.1946 50.3862C55.3084 50.3862 55.4283 50.4407 55.5225 50.5683C56.7689 52.2838 58.4843 53.762 60.4379 54.5775C61.5459 55.0388 62.7402 55.2817 63.935 55.3044C63.972 55.3044 64.0096 55.3055 64.046 55.3055C64.4534 55.3055 64.8704 55.2652 65.2879 55.2255C65.7054 55.1858 66.1235 55.1461 66.5354 55.1461C66.8459 55.1461 67.1519 55.1682 67.45 55.2306C67.8121 55.3056 67.9146 55.806 67.6658 56.0523C66.8913 56.8156 65.651 57.0079 64.5324 57.0079Z" fill="var(--fill-0, #CCF593)"/>
<path id="Vector_15" d="M41.6054 33.0489C41.2579 33.0489 40.8723 32.7129 40.9889 32.3066C41.9859 28.8025 44.296 25.5975 47.8771 24.5272C48.5709 24.3201 49.281 24.2186 49.9837 24.2186C52.0433 24.2186 54.0356 25.0868 55.3268 26.6955C55.9467 25.7569 56.942 25.097 58.1245 24.9954C58.2186 24.9874 58.3111 24.9835 58.4036 24.9835C60.1034 24.9835 61.6635 26.2977 62.0536 27.961C62.2021 28.5925 61.6843 29.0057 61.1945 29.0057C60.87 29.0057 60.5567 28.8241 60.4569 28.407C60.2294 27.4571 59.3849 26.6785 58.3963 26.6785C58.3587 26.6785 58.3217 26.6797 58.2836 26.6825C57.3147 26.7398 56.4185 27.5904 56.3171 28.5755C56.2622 29.105 55.8805 29.3887 55.4905 29.3887C55.1722 29.3887 54.8477 29.1992 54.6908 28.7986C53.9135 26.8028 51.9537 25.8767 49.9782 25.8767C49.2569 25.8767 48.5333 25.9998 47.8642 26.2399C44.9853 27.2749 43.1801 30.0288 42.0374 32.7544C41.95 32.9626 41.7824 33.0489 41.6054 33.0489Z" fill="var(--fill-0, #CCF593)"/>
<path id="Vector_16" d="M107.405 13.695C107.335 13.5802 107.265 13.4665 107.193 13.3528C107.252 13.3198 107.311 13.3039 107.37 13.3039C107.473 13.3039 107.571 13.3511 107.648 13.4256C107.566 13.5154 107.485 13.6046 107.405 13.695Z" fill="var(--fill-0, #F9FFF1)"/>
<path id="Vector_17" d="M84.6775 36.9724C84.4948 36.9724 84.3098 36.9117 84.1708 36.7828C83.333 36.0088 83.0416 34.6804 82.8242 33.5875C82.6006 32.4633 82.5086 31.3062 82.5781 30.1622C82.8 26.5191 84.5862 22.5417 88.0031 20.9188C88.9149 20.4864 89.9399 20.2668 90.9615 20.2668C92.7218 20.2668 94.4743 20.9148 95.6265 22.2387C96.4918 20.9795 97.778 20.0398 99.3018 19.7095C99.7238 19.617 100.152 19.5733 100.577 19.5733C101.756 19.5733 102.921 19.9155 103.918 20.5505C104.166 17.9106 105.275 15.4229 107.072 13.4515C107.111 13.4084 107.151 13.376 107.192 13.3528C107.264 13.4662 107.334 13.5803 107.404 13.6944C107.484 13.6042 107.565 13.5151 107.647 13.4254C107.806 13.5809 107.871 13.8561 107.696 14.0831C105.951 16.3325 105.135 19.2317 105.333 22.0758C105.365 22.5236 104.977 22.7993 104.591 22.7993C104.407 22.7993 104.223 22.737 104.086 22.5996C103.212 21.728 102.011 21.2122 100.794 21.2122C100.443 21.2122 100.091 21.2542 99.7457 21.3438C98.3065 21.715 97.0629 22.8567 96.5602 24.2737C96.4229 24.6607 95.9941 24.9393 95.5951 24.9393C95.3216 24.9393 95.0633 24.8076 94.9243 24.4898C94.3325 23.1376 93.085 22.3165 91.6576 22.0952C91.4121 22.0566 91.1706 22.039 90.9324 22.039C88.3729 22.039 86.3223 24.1613 85.2866 26.4209C84.59 27.9406 84.312 29.6584 84.3675 31.3239C84.395 32.1501 84.5121 32.961 84.7178 33.7605C84.9358 34.6095 85.3304 35.3903 85.3942 36.2705C85.4262 36.7171 85.0535 36.973 84.6769 36.973L84.6775 36.9724Z" fill="var(--fill-0, #CCF593)"/>
<path id="Vector_18" d="M145.707 37.5473C145.288 37.5473 144.867 37.2408 145.061 36.7426C145.528 35.5458 146.004 34.3246 146.201 33.0456C146.397 31.7796 146.3 30.4545 146.008 29.2135C145.332 26.3512 143.717 23.7987 142.199 21.3285C141.875 20.8019 142.323 20.3377 142.793 20.3377C142.999 20.3377 143.211 20.4279 143.363 20.6407C145.205 23.2363 147.071 25.9244 147.826 29.083C148.469 31.7659 148.502 35.493 146.168 37.3946C146.04 37.4985 145.874 37.5473 145.708 37.5473H145.707Z" fill="var(--fill-0, #CCF593)"/>
<path id="Vector_19" d="M142.844 33.9297C142.728 33.9297 142.611 33.9001 142.502 33.8423C142.254 33.7095 142.097 33.3429 142.194 33.0722C142.298 32.7726 142.371 32.4616 142.457 32.1558C142.502 32.0003 142.54 31.8436 142.568 31.6836L142.577 31.6269C142.577 31.6212 142.579 31.6149 142.579 31.6087L142.595 31.3664C142.605 31.0821 142.636 30.7314 142.576 30.4448C142.565 30.4006 142.549 30.3398 142.545 30.3183L142.489 30.0828L142.419 29.8507C142.41 29.8252 142.355 29.6867 142.357 29.6867C142.357 29.6867 142.366 29.7054 142.388 29.7548C142.217 29.357 142.278 28.9484 142.659 28.6999C142.771 28.6267 142.898 28.5938 143.027 28.5938C143.295 28.5938 143.566 28.7402 143.701 28.9757C144.105 29.681 144.368 30.5458 144.301 31.3658C144.266 31.7846 144.197 32.2051 144.056 32.6012C143.901 33.0421 143.649 33.4099 143.318 33.7333C143.186 33.8633 143.017 33.9279 142.844 33.9279V33.9297Z" fill="var(--fill-0, #CCF593)"/>
<path id="Vector_20" d="M161.289 35.0327C161.165 35.0327 161.039 35.0027 160.92 34.9465C160.354 34.6815 160.093 34.5028 159.561 34.244C159.459 34.1941 159.357 34.1464 159.253 34.0976C159.239 34.0902 159.226 34.084 159.214 34.0789C159.209 34.0772 159.198 34.0726 159.179 34.0664L159.021 34.0057C158.793 33.9245 158.56 33.8581 158.324 33.8088C157.998 33.7401 157.653 33.7128 157.284 33.7128C157.178 33.7128 157.068 33.7146 156.957 33.7191C156.485 33.7367 156.03 33.8394 155.588 34.0034C155.532 34.0249 155.478 34.0335 155.429 34.0335C155.022 34.0335 154.863 33.3922 155.232 33.1448C156.097 32.5677 157.103 32.259 158.132 32.259C158.278 32.259 158.424 32.2658 158.571 32.2783C159.825 32.3849 161.19 32.8242 161.871 33.9824C162.029 34.2502 161.979 34.6162 161.762 34.8364C161.627 34.9726 161.461 35.0322 161.289 35.0322V35.0327Z" fill="var(--fill-0, #CCF593)"/>
<path id="Vector_21" d="M44.3356 22.2756C44.1591 22.2756 43.9764 22.2076 43.8245 22.0861C42.6925 21.1867 41.2915 20.7633 39.8809 20.7633C38.4053 20.7633 36.92 21.2264 35.7235 22.0935C35.6445 22.1502 35.5645 22.1752 35.4866 22.1752C35.1245 22.1752 34.8308 21.6395 35.148 21.3393C36.4981 20.0642 38.2505 19.4491 40.0136 19.4491C41.4579 19.4491 42.9083 19.8616 44.1513 20.6629C44.9499 19.7561 46.1957 19.133 47.4039 19.133C47.9733 19.133 48.5344 19.272 49.0365 19.583C49.5891 19.9263 49.2994 20.7475 48.7227 20.7475C48.6706 20.7475 48.6162 20.7407 48.5602 20.7265C48.1297 20.6169 47.7313 20.5318 47.325 20.5318C47.056 20.5318 46.7819 20.5698 46.4927 20.6629C45.8107 20.8808 45.2486 21.324 44.8872 21.9482C44.7543 22.1752 44.5498 22.2756 44.3363 22.2756H44.3356Z" fill="var(--fill-0, #CCF593)"/>
</g>
</svg>
