<svg preserveAspectRatio="none" width="100%" height="100%" overflow="visible" style="display: block;" viewBox="0 0 58.3887 22.7989" fill="none" xmlns="http://www.w3.org/2000/svg">
<g id="Group">
<path id="Vector" d="M53.2771 17.1279C49.385 19.4011 44.841 19.3126 40.6681 18.8314C38.0565 21.3282 34.959 23.105 31.6564 22.7549C28.3404 22.4053 25.4228 20.3896 23.9634 17.4621C21.0946 20.7937 15.2202 23.0658 11.7136 21.2874C9.40967 20.1326 7.80799 18.3241 7.09176 15.4533C5.06974 16.1184 2.81683 15.8136 1.39615 14.4636C0.0135773 13.1743 -0.434215 10.8556 0.474237 8.9603L0.551022 8.78268C3.05949 4.0154 9.44667 4.34058 12.9415 8.01323C14.3375 4.20666 17.8441 1.07256 21.6848 0.233841C25.5254 -0.607144 29.5189 0.8671 31.6049 3.90248C33.3596 1.31086 36.6358 -0.201993 39.4648 0.270139C42.3068 0.739433 44.5221 3.14889 44.8164 6.08212C46.8771 4.66119 49.2067 3.54497 51.5756 3.35657C52.3692 3.30209 53.1622 3.35265 53.9042 3.52459C55.4286 3.85088 56.7731 4.66462 57.5789 5.94369C59.7921 9.40467 57.1687 14.845 53.2777 17.1296L53.2771 17.1279Z" fill="var(--fill-0, #EDFBD9)"/>
<path id="Vector_2" d="M33.4396 22.7418C32.8528 22.8104 32.2588 22.8178 31.6563 22.7543C28.3403 22.4047 25.4226 20.3891 23.9633 17.4615C22.0214 19.7166 18.702 21.486 15.6712 21.8435C14.2248 22.0137 12.8461 21.8611 11.7135 21.2868C9.40956 20.132 7.80788 18.3235 7.09165 15.4527C6.6562 15.5962 6.20955 15.695 5.76233 15.7478C4.13709 15.9384 2.51129 15.5219 1.39604 14.463C0.503839 13.6323 0.00112699 12.3742 6.13533e-06 11.0764C-0.00111472 10.3608 0.151319 9.63331 0.474125 8.95973C1.83148 10.4715 4.00876 11.2325 6.15463 10.9799C7.10399 10.8681 8.04607 10.5594 8.91025 10.0294C10.1645 12.9405 13.0445 14.9085 16.2709 15.0742C16.7725 15.1003 17.2791 15.0821 17.7857 15.0225C20.5486 14.6979 23.3003 13.1522 25.1296 10.8454C26.2936 13.4688 28.8923 15.2507 31.811 15.4255C32.3008 15.4555 32.799 15.4396 33.2955 15.3812C35.7558 15.0923 38.2183 13.7599 39.9013 11.7409C40.6427 13.1652 42.3403 13.7435 44.03 13.5448C44.5282 13.4864 45.0236 13.3604 45.4954 13.1703C47.5696 12.3435 53.0288 10.3568 53.9047 3.52397C55.4291 3.85026 56.7735 4.664 57.5794 5.94307C58.1364 6.81583 58.3875 7.81289 58.3887 8.85305C58.3909 11.9446 56.189 15.4203 53.2787 17.1284C51.4696 18.1845 49.5182 18.7315 47.5309 18.9648C45.2422 19.2337 42.9029 19.089 40.6696 18.832C38.5344 20.8726 36.073 22.4331 33.4412 22.7423L33.4396 22.7418Z" fill="var(--fill-0, #E1FAC0)"/>
<path id="Vector_3" d="M18.655 8.08073C18.0956 8.14656 17.7101 7.81634 17.6417 7.21823C17.5901 6.77731 17.8519 6.21153 18.0895 5.8143C18.3619 5.35693 18.8034 4.99145 19.2114 4.66175C19.8262 4.16522 20.575 3.7164 21.3069 3.49168C21.6594 3.38216 22.0198 3.3078 22.3807 3.2658C22.9266 3.20168 23.4752 3.2102 23.9998 3.28454C24.4223 3.34412 24.8281 3.45702 25.2013 3.64258C25.3835 3.73508 25.6076 3.8412 25.7601 3.97796C25.9293 4.13061 26.0134 4.33947 26.1008 4.54887C26.2331 4.8604 25.9584 5.35694 25.6233 5.45908C25.4552 5.51016 25.3028 5.55495 25.143 5.57424C25.064 5.58332 24.9822 5.58676 24.897 5.57995C24.7468 5.56803 24.5994 5.54421 24.4481 5.53683L24.3786 5.53622C24.2284 5.53509 24.0788 5.53057 23.9286 5.52603C23.8989 5.52546 23.8804 5.52432 23.8737 5.52376L23.6484 5.53229C23.5402 5.53796 23.4326 5.54645 23.3239 5.5595C23.26 5.56688 23.1956 5.57595 23.1305 5.5856L22.9002 5.62761C22.8509 5.63612 22.8116 5.64293 22.8027 5.64406H22.8016C22.5096 5.72237 22.2266 5.8444 21.943 5.96243C21.7905 6.02656 21.6381 6.08726 21.4879 6.15933L21.3702 6.21835C21.3501 6.23026 21.3103 6.25181 21.2649 6.28075C20.9936 6.44588 20.7403 6.63597 20.492 6.83685C20.4881 6.83969 20.4847 6.84255 20.4814 6.84539C20.4898 6.83801 20.4982 6.83007 20.5066 6.82156L20.4803 6.84649C20.4382 6.88224 20.4214 6.89703 20.4237 6.89703C20.4248 6.89647 20.4439 6.88173 20.473 6.85392L20.3435 6.97988C20.1681 7.1575 19.9944 7.33682 19.7893 7.47869C19.5074 7.6739 19.2098 7.93944 18.887 8.03308C18.8068 8.05577 18.7284 8.07222 18.6544 8.08073H18.655ZM20.4741 6.85392L20.4814 6.84649C20.4825 6.84649 20.4825 6.84652 20.4825 6.84539C20.4803 6.84822 20.478 6.85108 20.4741 6.85392Z" fill="var(--fill-0, #CCF593)"/>
<path id="Vector_4" d="M21.9356 9.13787C21.8589 9.14695 21.7799 9.14634 21.7008 9.13726C21.5137 9.1157 21.3489 9.00334 21.2351 8.86771C21.1561 8.78827 21.1029 8.6924 21.0754 8.57777L21.0429 8.33998C21.0322 8.10505 21.1521 7.8537 21.3057 7.667C21.4436 7.49733 21.6106 7.34921 21.7787 7.21131C21.9513 7.06831 22.1447 6.96785 22.3392 6.86457L22.5303 6.77324L22.625 6.73805L22.9326 6.66368L23.2179 6.66939L23.363 6.71422C23.5143 6.76132 23.6545 6.81009 23.7867 6.89067L24.0389 7.09555L24.1544 7.28108L24.2154 7.50352V7.74414C24.211 7.86444 24.1746 7.98191 24.1084 8.09426L23.9694 8.29343L23.7867 8.45746L23.5732 8.57378L23.4208 8.64361C23.3546 8.68276 23.2879 8.72248 23.2179 8.75256C23.1232 8.79512 23.0363 8.81267 22.9489 8.82288C22.8996 8.82856 22.8508 8.832 22.7987 8.83541L22.5947 8.86999C22.5465 8.88701 22.4989 8.90574 22.4518 8.92673L22.3918 8.96309C22.2455 9.06069 22.0931 9.11743 21.9356 9.13615V9.13787Z" fill="var(--fill-0, #CCF593)"/>
</g>
</svg>
