<svg preserveAspectRatio="none" width="100%" height="100%" overflow="visible" style="display: block;" viewBox="0 0 1467.92 117.786" fill="none" xmlns="http://www.w3.org/2000/svg">
<g id="Group">
<path id="_1_2" fill-rule="evenodd" clip-rule="evenodd" d="M12.9851 1.56965L0 4.19928L142.235 90.9824L155.22 88.3528L12.9851 1.56965Z" fill="var(--fill-0, #C3CAA0)"/>
<path id="Vector" fill-rule="evenodd" clip-rule="evenodd" d="M166.003 0.189525L158.76 0L245.181 63.7537L248.899 61.1939L166.003 0.189525Z" fill="var(--fill-0, #C3CAA0)"/>
<path id="Vector_2" fill-rule="evenodd" clip-rule="evenodd" d="M291.037 3.17045L286.297 3.08416L337.521 46.5657H342.261L291.037 3.17045Z" fill="var(--fill-0, #C3CAA0)"/>
<path id="Vector_3" fill-rule="evenodd" clip-rule="evenodd" d="M387.387 5.02709H383.445L437.479 50.0765H441.421L387.387 5.02709Z" fill="var(--fill-0, #C3CAA0)"/>
<path id="Vector_4" fill-rule="evenodd" clip-rule="evenodd" d="M453.825 6.17513L450.593 6.12803L481.909 38.4186H485.144L453.825 6.17513Z" fill="var(--fill-0, #C3CAA0)"/>
<path id="Vector_5" fill-rule="evenodd" clip-rule="evenodd" d="M509.96 6.90665L507.306 6.88448L533.997 32.5192H536.651L509.96 6.90665Z" fill="var(--fill-0, #C3CAA0)"/>
<path id="Vector_6" fill-rule="evenodd" clip-rule="evenodd" d="M587.285 37.556H584.63L560.226 7.43439H562.88L587.285 37.556Z" fill="var(--fill-0, #C3CAA0)"/>
<path id="Vector_7" fill-rule="evenodd" clip-rule="evenodd" d="M611.662 7.80267H609.731L620.364 32.5192H622.296L611.662 7.80267Z" fill="var(--fill-0, #C3CAA0)"/>
<path id="Vector_8" d="M661.522 8.02565H658.917V26.6521H661.522V8.02565Z" fill="var(--fill-0, #C3CAA0)"/>
<path id="Vector_9" d="M90.3133 110.491H7.06305V117.785H90.3133V110.491Z" fill="var(--fill-0, #C3CAA0)"/>
<path id="Vector_10" d="M713.661 8.02565H712.461V26.6521H713.661V8.02565Z" fill="var(--fill-0, #C3CAA0)"/>
<path id="Vector_11" fill-rule="evenodd" clip-rule="evenodd" d="M1454.94 1.56965L1467.92 4.19928L1325.69 90.9824L1312.7 88.3528L1454.94 1.56965Z" fill="var(--fill-0, #C3CAA0)"/>
<path id="Vector_12" fill-rule="evenodd" clip-rule="evenodd" d="M1301.92 0.189525L1309.16 0L1222.74 63.7537L1219.02 61.1939L1301.92 0.189525Z" fill="var(--fill-0, #C3CAA0)"/>
<path id="Vector_13" fill-rule="evenodd" clip-rule="evenodd" d="M1176.89 3.17045L1181.63 3.08416L1130.4 46.5657H1125.66L1176.89 3.17045Z" fill="var(--fill-0, #C3CAA0)"/>
<path id="Vector_14" fill-rule="evenodd" clip-rule="evenodd" d="M1080.53 5.02709H1084.48L1030.44 50.0765H1026.5L1080.53 5.02709Z" fill="var(--fill-0, #C3CAA0)"/>
<path id="Vector_15" fill-rule="evenodd" clip-rule="evenodd" d="M1014.1 6.17513L1017.33 6.12803L986.013 38.4186H982.778L1014.1 6.17513Z" fill="var(--fill-0, #C3CAA0)"/>
<path id="Vector_16" fill-rule="evenodd" clip-rule="evenodd" d="M957.962 6.90665L960.616 6.88448L933.925 32.5192H931.271L957.962 6.90665Z" fill="var(--fill-0, #C3CAA0)"/>
<path id="Vector_17" fill-rule="evenodd" clip-rule="evenodd" d="M880.637 37.556H883.291L907.696 7.43439H905.042L880.637 37.556Z" fill="var(--fill-0, #C3CAA0)"/>
<path id="Vector_18" fill-rule="evenodd" clip-rule="evenodd" d="M856.26 7.80267H858.192L847.557 32.5192H845.626L856.26 7.80267Z" fill="var(--fill-0, #C3CAA0)"/>
<path id="Vector_19" d="M809.005 8.02565H806.4V26.6521H809.005V8.02565Z" fill="var(--fill-0, #C3CAA0)"/>
<path id="Vector_20" d="M1460.86 110.491H1377.61V117.785H1460.86V110.491Z" fill="var(--fill-0, #C3CAA0)"/>
<path id="Vector_21" d="M755.461 8.02565H754.261V26.6521H755.461V8.02565Z" fill="var(--fill-0, #C3CAA0)"/>
</g>
</svg>
