<svg preserveAspectRatio="none" width="100%" height="100%" overflow="visible" style="display: block;" viewBox="0 0 530.984 164.529" fill="none" xmlns="http://www.w3.org/2000/svg">
<g id="Group">
<path id="Vector" fill-rule="evenodd" clip-rule="evenodd" d="M517.999 75.1167L530.984 77.7463L388.749 164.53L375.763 161.9L517.999 75.1167Z" fill="var(--fill-0, #C3CAA0)"/>
<path id="Vector_2" fill-rule="evenodd" clip-rule="evenodd" d="M420.562 51.1962L427.885 51.0067L314.469 114.76L311.835 112.2L420.562 51.1962Z" fill="var(--fill-0, #C3CAA0)"/>
<path id="Vector_3" fill-rule="evenodd" clip-rule="evenodd" d="M347.99 39.709L353.748 39.6057L266.791 91.9596H261.083L347.99 39.709Z" fill="var(--fill-0, #C3CAA0)"/>
<path id="Vector_4" fill-rule="evenodd" clip-rule="evenodd" d="M262.865 20.5731H266.807L197.515 65.6219H193.573L262.865 20.5731Z" fill="var(--fill-0, #C3CAA0)"/>
<path id="Vector_5" fill-rule="evenodd" clip-rule="evenodd" d="M221.338 17.4718L224.618 17.4065L160.419 61.8057H157.185L221.338 17.4718Z" fill="var(--fill-0, #C3CAA0)"/>
<path id="Vector_6" fill-rule="evenodd" clip-rule="evenodd" d="M172.408 10.5134L175.064 10.4874L146.244 40.6091H143.591L172.408 10.5134Z" fill="var(--fill-0, #C3CAA0)"/>
<path id="Vector_7" fill-rule="evenodd" clip-rule="evenodd" d="M112.409 35.6335H115.062L133.707 5.51247H131.053L112.409 35.6335Z" fill="var(--fill-0, #C3CAA0)"/>
<path id="Vector_8" d="M54.3888 1.94651H51.784V32.0681H54.3888V1.94651Z" fill="var(--fill-0, #C3CAA0)"/>
<path id="Vector_9" fill-rule="evenodd" clip-rule="evenodd" d="M81.8935 32.4671H84.5471L94.7155 2.34538H92.0614L81.8935 32.4671Z" fill="var(--fill-0, #C3CAA0)"/>
<path id="Vector_10" d="M1.20043 0H0V34.0145H1.20043V0Z" fill="var(--fill-0, #C3CAA0)"/>
</g>
</svg>
