<svg preserveAspectRatio="none" width="100%" height="100%" overflow="visible" style="display: block;" viewBox="0 0 1318.56 203.242" fill="none" xmlns="http://www.w3.org/2000/svg">
<path id="Vector" fill-rule="evenodd" clip-rule="evenodd" d="M450.421 6.15715C302.593 14.7906 197.795 26.0849 113.772 42.6918C-19.3495 69.0023 -45.0625 119.8 87.1562 203.242C116.465 196.769 131.12 193.532 131.12 193.532C-9.41428 119.326 22.5564 75.9345 148.187 53.998C302.845 26.9928 443.545 9.59199 592.054 6.18209C638.196 5.12263 684.916 5.14192 731.052 6.29104C877.89 9.94836 1017.3 27.2686 1170.38 53.998C1296.01 75.934 1327.98 119.326 1187.44 193.532C1187.44 193.532 1202.1 196.769 1231.41 203.242C1363.63 119.8 1337.91 69.0023 1204.79 42.6918C1120.77 26.0849 1015.97 14.79 868.142 6.15715C727.574 -2.05238 590.99 -2.05238 450.422 6.15715H450.421Z" fill="var(--fill-0, #C3CAA0)"/>
</svg>
