<svg xmlns="http://www.w3.org/2000/svg" viewBox="0 0 100 100" width="100" height="100">
  <!-- Fundo verde escuro com cantos arredondados -->
  <rect width="100" height="100" rx="22" ry="22" fill="#1A2B01"/>
  <!-- Ícone Figuri (card + F) centralizado, em verde-limão -->
  <!-- Original viewBox: 0 0 82 100.15 -->
  <!-- Scale 0.80, centered: x=(100-82*0.80)/2=17.2, y=(100-100.15*0.80)/2=9.94 -->
  <g transform="translate(17.2,9.94) scale(0.80)">
    <path fill="#94DD2D" d="M72.7 74.57l-24.04 25.58 -48.66 -3.43 3.49 -79.63 11.99 -8.02 52.65 -9.07 -0.92 7.71 14.79 -2.49 -9.3 69.36zm-11.44 -67.38l-0.92 7.72 14.66 -2.47 -7.96 59.39 -10.79 10.1 -45.62 7.6 10.18 -75.3 40.45 -7.05z"/>
    <polygon fill="#94DD2D" points="25.53,74.25 31.85,28.9 42.41,27.15 60.34,24.17 59.02,33.61 42.36,36.38 41.12,45.26 57.09,42.61 55.77,52.06 39.81,54.71 37.36,72.29"/>
  </g>
</svg>
