<?xml version="1.0" encoding="UTF-8"?>
<!DOCTYPE svg PUBLIC "-//W3C//DTD SVG 1.1//EN" "http://www.w3.org/Graphics/SVG/1.1/DTD/svg11.dtd">
<!-- Creator: CorelDRAW -->
<svg xmlns="http://www.w3.org/2000/svg" xml:space="preserve" width="266.757mm" height="132.743mm" version="1.1" style="shape-rendering:geometricPrecision; text-rendering:geometricPrecision; image-rendering:optimizeQuality; fill-rule:evenodd; clip-rule:evenodd"
viewBox="0 0 689.42 343.07"
 xmlns:xlink="http://www.w3.org/1999/xlink"
 xmlns:xodm="http://www.corel.com/coreldraw/odm/2003">
 <defs>
  <style type="text/css">
   <![CDATA[
    .fil0 {fill:#FEFEFE}
    .fil1 {fill:black}
   ]]>
  </style>
 </defs>
 <g id="Camada_x0020_1">
  <metadata id="CorelCorpID_0Corel-Layer"/>
  <g id="_2274277073888">
   <path class="fil0" d="M662.11 203.69l-70.59 75.12 -233.55 25.73c-19.32,13.91 -43.03,22.76 -65.36,26.75 -27.66,4.94 -60.09,3.57 -85.59,-10.12l-207.02 21.9 10.24 -233.86 35.21 -23.55 258.46 -42.97 -2.69 22.63 388.2 -65.32 -27.32 203.69z"/>
   <path class="fil1" d="M283.73 63.82l-2.7 22.68 387.84 -65.25 -23.39 174.42 -31.69 29.66 -242.35 40.09c-30.51,50.35 -130.9,69.51 -171.1,29.29l-169.13 27.29 29.89 -221.14 222.63 -37.02z"/>
   <path class="fil0" d="M403.78 225.72c-11.7,1.94 -20.24,-0.3 -25.61,-6.71 -5.37,-6.42 -6.98,-17.35 -4.82,-32.8l8.14 -58.38 33.99 -5.64 -8.27 59.3c-0.63,4.5 0.23,7.92 2.58,10.27 2.35,2.34 5.83,3.13 10.43,2.37 4.61,-0.76 8.54,-2.78 11.79,-6.06 0.29,-0.3 0.58,-0.6 0.85,-0.91 2.75,-3.1 4.42,-6.8 5.02,-11.12l8.22 -58.93 33.99 -5.64 -10.15 72.83 -3.89 27.88 -26.89 4.46 3.3 -23.68c-0.93,2.61 -1.97,5.05 -3.12,7.34 -3.62,7.19 -8.27,12.87 -13.96,17.02 -5.69,4.15 -12.39,6.87 -20.11,8.15l-1.49 0.25zm200.33 -142.67c-6.1,1.01 -10.4,0.21 -12.89,-2.41 -2.49,-2.62 -3.4,-6.36 -2.72,-11.22 0.68,-4.87 2.7,-9.09 6.05,-12.68 3.36,-3.59 8.09,-5.89 14.19,-6.9 6.23,-1.03 10.55,-0.24 12.99,2.39 2.43,2.63 3.31,6.37 2.63,11.24 -0.68,4.87 -2.67,9.09 -5.96,12.66 -3.3,3.58 -8.06,5.88 -14.28,6.91zm-529.14 194.02l18.57 -133.19 31 -5.14 52.67 -8.74 -3.87 27.73 -48.93 8.12 -3.64 26.09 46.88 -7.78 -3.87 27.73 -46.88 7.78 -7.2 51.63 -34.74 5.76zm201.5 5.95c-5.1,0.85 -10.34,1.54 -15.71,2.07 -5.37,0.53 -10.18,0.86 -14.46,0.97l3.87 -27.73c4.29,-0.24 9.08,-0.59 14.38,-1.05 5.29,-0.46 10.18,-1.07 14.67,-1.81 7.72,-1.28 14.15,-3.12 19.29,-5.52 5.14,-2.4 9.12,-5.43 11.94,-9.11 2.82,-3.68 4.59,-8.07 5.3,-13.18l1.23 -8.84c-3.95,6.6 -9,12.04 -15.14,16.32 -6.26,4.37 -13.51,7.23 -21.72,8.59 -6.97,1.16 -13.09,0.98 -18.35,-0.52 -5.26,-1.5 -9.55,-4.15 -12.85,-7.94 -3.3,-3.79 -5.59,-8.55 -6.86,-14.28 -1.27,-5.73 -1.4,-12.18 -0.4,-19.36l0.61 -4.38c1,-7.18 3.05,-14.02 6.15,-20.54 3.1,-6.51 7.08,-12.4 11.95,-17.67 4.87,-5.26 10.37,-9.62 16.51,-13.08 6.14,-3.45 12.76,-5.77 19.85,-6.95 8.22,-1.36 15.07,-0.75 20.54,1.85 5.48,2.6 9.42,7.02 11.83,13.28 0.44,1.14 0.82,2.33 1.14,3.59l3.06 -21.93 26.89 -4.46 -2.9 20.78 -9.49 68.08c-1.73,12.41 -5.49,22.83 -11.29,31.28 -5.8,8.45 -13.71,15.23 -23.73,20.33 -10.02,5.11 -22.12,8.84 -36.32,11.19zm18.86 -68.54c4.11,-0.68 7.94,-2.21 11.49,-4.58 0.39,-0.26 0.78,-0.54 1.16,-0.82 3.05,-2.25 5.68,-5.06 7.88,-8.44 2.48,-3.8 4.05,-8.13 4.73,-12.99l0.61 -4.38c0.66,-4.74 0.19,-8.59 -1.4,-11.53 -1.6,-2.94 -3.96,-4.99 -7.08,-6.13 -3.12,-1.14 -6.62,-1.4 -10.48,-0.76 -4.48,0.74 -8.58,2.43 -12.29,5.07 -3.71,2.64 -6.8,6 -9.25,10.09 -2.46,4.09 -4.04,8.69 -4.75,13.8 -0.71,5.11 -0.36,9.33 1.06,12.66 1.42,3.33 3.71,5.68 6.86,7.06 3.15,1.38 6.97,1.7 11.45,0.95zm-113.53 44.86l10.68 -76.63 -13.07 2.17 3.36 -24.08 13.07 -2.17 33.99 -5.64 -14.04 100.71 -33.99 5.64zm28.98 -111.03c-6.1,1.01 -10.4,0.21 -12.89,-2.41 -2.49,-2.62 -3.4,-6.36 -2.72,-11.22 0.68,-4.87 2.7,-9.09 6.06,-12.68 3.36,-3.59 8.09,-5.89 14.19,-6.9 6.23,-1.03 10.55,-0.24 12.99,2.39 2.43,2.63 3.31,6.37 2.63,11.24 -0.68,4.87 -2.67,9.09 -5.96,12.66 -3.3,3.58 -8.06,5.88 -14.28,6.91zm280.31 59.71l14.04 -100.71 26.89 -4.46 -4.96 35.57c2.41,-10.42 6.46,-19.23 12.17,-26.43 7.16,-9.03 16.4,-14.48 27.73,-16.36l4.11 -0.68 -3.97 28.46 -7.84 1.3c-7.6,1.26 -13.76,4.24 -18.49,8.95 -3.13,3.12 -5.46,6.86 -6.98,11.22 -0.77,2.22 -1.34,4.6 -1.69,7.15l-7.02 50.36 -33.99 5.64zm81.65 -88.4l3.36 -24.08 13.07 -2.17 33.99 -5.64 -3.36 24.08 -10.68 76.63 -33.99 5.64 10.68 -76.63 -13.07 2.17z"/>
  </g>
 </g>
</svg>
